<svg width="24" height="24" viewBox="0 0 24 24" fill="none" xmlns="http://www.w3.org/2000/svg">
<path fill-rule="evenodd" clip-rule="evenodd" d="M16.9289 17.8424C16.7824 17.696 16.7824 17.4586 16.9289 17.3122C17.0753 17.1657 17.3127 17.1657 17.4591 17.3122L17.7155 17.5685L18.2397 16.9204C18.37 16.7595 18.6061 16.7345 18.7671 16.8648C18.9281 16.9951 18.953 17.2311 18.8227 17.3922L18.0382 18.362C18.0295 18.3729 18.0202 18.3834 18.0101 18.3934C17.8637 18.5399 17.6262 18.5399 17.4798 18.3934L16.9289 17.8424ZM21.1456 16.6975C20.5109 16.1018 20.595 16.2474 20.3965 15.3999C20.3202 15.0744 20.0491 14.8469 19.7152 14.8283C18.8461 14.78 19.0042 14.8375 18.3073 14.3159C18.0396 14.1155 17.6857 14.1155 17.4181 14.3159C16.7212 14.8375 16.8792 14.78 16.0101 14.8283C15.6763 14.8469 15.4052 15.0744 15.3289 15.3999C15.1304 16.2474 15.2145 16.1018 14.5798 16.6975C14.336 16.9263 14.2745 17.2748 14.4254 17.5732C14.818 18.35 14.7888 18.1844 14.6855 19.0487C14.6459 19.3807 14.8228 19.6872 15.1301 19.8188C15.9303 20.1615 15.8015 20.0534 16.2779 20.7819C16.4609 21.0617 16.7935 21.1828 17.1135 21.086C17.9467 20.8342 17.7786 20.8342 18.6118 21.086C18.9318 21.1827 19.2644 21.0617 19.4474 20.7819C19.9239 20.0534 19.795 20.1615 20.5952 19.8188C20.9025 19.6872 21.0795 19.3807 21.0398 19.0487C20.9365 18.1844 20.9073 18.35 21.2999 17.5732C21.4508 17.2748 21.3893 16.9263 21.1456 16.6975ZM17.8626 19.5013C16.836 19.5013 16.0037 18.669 16.0037 17.6423C16.0037 16.6156 16.836 15.7834 17.8626 15.7834C18.8893 15.7834 19.7216 16.6157 19.7216 17.6423C19.7216 18.669 18.8893 19.5013 17.8626 19.5013ZM18.9101 21.8665C19.3738 21.8415 19.8086 21.5999 20.0751 21.1924C20.3015 20.8461 20.2597 20.7636 20.6441 20.6073L21.1858 21.865C21.2309 21.9697 21.1399 22.0814 21.0283 22.0585L20.1403 21.8766C20.0815 21.8646 20.0242 21.8892 19.9925 21.9403L19.5145 22.7105C19.4545 22.8072 19.3107 22.7965 19.2656 22.692L18.9101 21.8665ZM17.0115 21.864L16.4421 23.087C16.394 23.1903 16.25 23.1968 16.1928 23.0983L15.7374 22.3146C15.7072 22.2627 15.6506 22.2364 15.5914 22.2467L14.6985 22.4027C14.5862 22.4223 14.4985 22.308 14.5467 22.2047L15.2552 20.6829C15.29 20.6996 15.3203 20.7157 15.343 20.7306C15.4315 20.8251 15.5784 21.0825 15.6502 21.1924C15.9541 21.657 16.4767 21.9059 17.0115 21.864ZM6.13113 17.851L6.65327 18.3731C6.81203 18.5319 7.0721 18.516 7.21164 18.3417L7.95499 17.4227C8.08525 17.2617 8.06031 17.0256 7.8993 16.8954C7.73833 16.7651 7.50222 16.79 7.37195 16.951L6.88891 17.5482L6.66138 17.3206C6.51494 17.1742 6.27752 17.1742 6.13113 17.3206C5.98469 17.4671 5.98469 17.7045 6.13113 17.851ZM6.13113 13.1224C5.98469 12.976 5.98469 12.7386 6.13113 12.5922C6.27756 12.4458 6.51499 12.4458 6.66138 12.5922L6.88891 12.8197L7.37195 12.2226C7.50222 12.0616 7.73828 12.0367 7.8993 12.1669C8.06027 12.2972 8.08521 12.5333 7.95499 12.6943L7.21164 13.6132C7.0721 13.7876 6.81203 13.8034 6.65327 13.6446L6.13113 13.1224ZM13.6364 1.99714H12.0749C11.974 1.99714 11.8882 1.93667 11.8542 1.8417C11.6433 1.25286 11.0803 0.831543 10.4189 0.831543C9.75752 0.831543 9.1946 1.25286 8.98366 1.8417C8.94963 1.93667 8.86375 1.99714 8.76292 1.99714H7.20147C7.07233 1.99714 6.96696 2.10246 6.96696 2.23165V4.09386C6.96696 4.223 7.07233 4.32837 7.20147 4.32837H13.6364C13.7656 4.32837 13.8709 4.22304 13.8709 4.09386V2.23165C13.8709 2.10251 13.7656 1.99714 13.6364 1.99714ZM10.419 2.48431C10.1963 2.48431 10.0158 2.30379 10.0158 2.08109C10.0158 1.85843 10.1963 1.67792 10.419 1.67792C10.6417 1.67792 10.8222 1.85843 10.8222 2.08109C10.8221 2.30379 10.6416 2.48431 10.419 2.48431ZM15.5875 14.1501C15.5875 14.1501 15.5868 14.1503 15.5853 14.1507H15.5855L15.5875 14.1501ZM17.3229 2.53911H14.6209V4.09386C14.6209 4.63695 14.1795 5.07832 13.6365 5.07832H7.20147C6.65838 5.07832 6.217 4.63695 6.217 4.09386V2.53911H3.51499C3.02116 2.53911 2.61841 2.94186 2.61841 3.43573V19.9335C2.61841 20.4274 3.02116 20.8302 3.51499 20.8302H14.3593L14.5755 20.3659C14.1232 20.0567 13.8736 19.5222 13.9408 18.9597C13.9435 18.9372 13.9473 18.9098 13.9518 18.8793H10.4296C10.2225 18.8793 10.0546 18.7114 10.0546 18.5043C10.0546 18.2972 10.2225 18.1293 10.4296 18.1293H13.8723C13.8275 18.0451 13.7826 17.9643 13.756 17.9116C13.6354 17.6731 13.5835 17.4156 13.596 17.1634L13.596 17.1642H10.4296C10.2234 17.1642 10.0561 16.9969 10.0561 16.7906C10.0561 16.5843 10.2234 16.4171 10.4296 16.4171H13.8414L13.8405 16.4183C13.904 16.3223 13.9795 16.2324 14.0665 16.1507C14.1623 16.0608 14.3902 15.8715 14.468 15.768C14.5188 15.6489 14.5687 15.3568 14.5987 15.2289C14.794 14.3953 15.5391 14.1643 15.5853 14.1508H10.4296C9.93639 14.1508 9.93639 13.4008 10.4296 13.4008H15.7169C16.0837 13.4008 16.2281 13.8729 15.9335 14.0819C15.8794 14.0859 15.9564 14.0802 15.9685 14.0795C16.0996 14.0722 16.3958 14.0738 16.522 14.0444C16.6375 13.9858 16.8634 13.7942 16.9686 13.7155C17.3377 13.4392 17.7956 13.3539 18.2195 13.4595V3.43573C18.2195 2.94186 17.8167 2.53911 17.3229 2.53911ZM8.53169 18.8383C8.53169 19.0093 8.39177 19.1493 8.22077 19.1493H5.83891C5.66791 19.1493 5.52799 19.0093 5.52799 18.8383V16.4565C5.52799 16.2854 5.66791 16.1456 5.83891 16.1456H8.22077C8.39177 16.1456 8.53169 16.2855 8.53169 16.4565V18.8383ZM8.53169 14.1099C8.53169 14.2809 8.39177 14.4208 8.22077 14.4208H5.83891C5.66791 14.4208 5.52799 14.2809 5.52799 14.1099V11.728C5.52799 11.557 5.66791 11.4171 5.83891 11.4171H8.22077C8.39177 11.4171 8.53169 11.557 8.53169 11.728V14.1099ZM8.89881 9.53337H4.7636C4.67524 9.53337 4.60914 9.45415 4.62513 9.3672C4.8168 8.32315 5.73128 7.5319 6.83064 7.53162C6.20458 7.53134 5.69706 7.02368 5.69706 6.39748C5.69706 5.77114 6.20486 5.26334 6.83116 5.26334C7.4575 5.26334 7.9653 5.77109 7.9653 6.39748C7.9653 7.02364 7.45783 7.53129 6.83172 7.53162C7.93113 7.5319 8.84556 8.32311 9.03724 9.3672C9.05327 9.45415 8.98722 9.53337 8.89881 9.53337ZM15.7169 12.4371H10.4296C9.93639 12.4371 9.93639 11.6871 10.4296 11.6871H15.7169C16.2101 11.6871 16.2101 12.4371 15.7169 12.4371ZM15.7169 9.19657H10.4296C9.93639 9.19657 9.93639 8.44657 10.4296 8.44657H15.7169C16.2101 8.44657 16.2101 9.19657 15.7169 9.19657ZM15.7169 7.48292H10.4296C9.93639 7.48292 9.93639 6.73292 10.4296 6.73292H15.7169C16.2101 6.73292 16.2101 7.48292 15.7169 7.48292Z" fill="#EAB05C"/>
</svg>
