<svg width="52" height="52" viewBox="0 0 52 52" fill="none" xmlns="http://www.w3.org/2000/svg">
<rect width="52" height="52" rx="26" fill="#EAB05C"/>
<g clip-path="url(#clip0_232_12157)">
<path d="M25.8005 25.4877C27.6534 25.4877 29.258 24.8231 30.569 23.5119C31.88 22.2009 32.5446 20.5968 32.5446 18.7436C32.5446 16.8911 31.88 15.2868 30.5688 13.9754C29.2575 12.6646 27.6532 12 25.8005 12C23.9473 12 22.3432 12.6646 21.0322 13.9756C19.7212 15.2866 19.0564 16.8909 19.0564 18.7436C19.0564 20.5968 19.7212 22.2011 21.0324 23.5121C22.3436 24.8229 23.9479 25.4877 25.8005 25.4877Z" fill="white"/>
<path d="M37.6008 33.5305C37.563 32.9849 37.4865 32.3898 37.3739 31.7613C37.2603 31.1281 37.114 30.5296 36.9388 29.9825C36.7578 29.417 36.5117 28.8586 36.2076 28.3235C35.8918 27.7681 35.521 27.2844 35.1048 26.8864C34.6697 26.4701 34.1369 26.1353 33.5208 25.8912C32.9069 25.6483 32.2265 25.5252 31.4987 25.5252C31.2128 25.5252 30.9364 25.6425 30.4026 25.9901C30.074 26.2043 29.6897 26.4521 29.2607 26.7262C28.894 26.9599 28.3971 27.1789 27.7833 27.3771C27.1845 27.5709 26.5766 27.6692 25.9765 27.6692C25.3764 27.6692 24.7687 27.5709 24.1693 27.3771C23.5562 27.1791 23.0593 26.9601 22.6929 26.7264C22.268 26.4549 21.8835 26.2071 21.55 25.9899C21.0168 25.6423 20.7402 25.525 20.4543 25.525C19.7263 25.525 19.0461 25.6483 18.4324 25.8914C17.8167 26.1351 17.2838 26.4699 16.8482 26.8867C16.4323 27.2848 16.0612 27.7683 15.7459 28.3235C15.4419 28.8586 15.1958 29.4168 15.0146 29.9827C14.8397 30.5298 14.6934 31.1281 14.5797 31.7613C14.4671 32.3889 14.3907 32.9843 14.3528 33.5312C14.3157 34.0669 14.2969 34.623 14.2969 35.1846C14.2969 36.6462 14.7615 37.8294 15.6777 38.7021C16.5826 39.5632 17.78 40.0001 19.2361 40.0001H32.7182C34.1743 40.0001 35.3712 39.5634 36.2763 38.7021C37.1928 37.8301 37.6574 36.6466 37.6574 35.1844C37.6572 34.6202 37.6382 34.0637 37.6008 33.5305Z" fill="white"/>
</g>
<defs>
<clipPath id="clip0_232_12157">
<rect width="28" height="28" fill="white" transform="translate(12 12)"/>
</clipPath>
</defs>
</svg>
