<svg width="52" height="52" viewBox="0 0 52 52" fill="none" xmlns="http://www.w3.org/2000/svg">
<rect width="52" height="52" rx="26" fill="#EAB05C"/>
<path d="M35.6652 20.6698H32.1506C30.7294 20.6698 29.573 19.5135 29.573 18.0922V14.5767C29.573 13.1513 28.4194 12 26.9963 12H23.3642C21.9271 12 20.7866 13.1662 20.7866 14.5776V30.3932C20.7866 31.8303 21.9528 32.9708 23.3642 32.9708H35.6652C37.1056 32.9708 38.2429 31.801 38.2429 30.3932V23.2474C38.2428 21.8261 37.0865 20.6698 35.6652 20.6698ZM32.8332 23.8191L29.3186 29.0909C29.0086 29.574 28.2635 29.5739 27.9535 29.0909L26.1962 26.455C25.9449 26.078 26.0467 25.5687 26.4237 25.3174C26.8006 25.0661 27.3099 25.168 27.5613 25.5449L28.636 27.1571L31.4681 22.909C31.7194 22.532 32.2287 22.4302 32.6056 22.6815C32.9827 22.9328 33.0845 23.4422 32.8332 23.8191Z" fill="white"/>
<path d="M15.6313 33.9078V19.1279C14.565 19.4314 13.7573 20.4064 13.7573 21.6067V37.4224C13.7573 38.8436 14.9136 40 16.3349 40H28.636C29.8133 40 30.8081 39.2062 31.1151 38.126H19.8495C17.5236 38.126 15.6313 36.2337 15.6313 33.9078Z" fill="white"/>
<path d="M19.1459 30.3932V15.6134C18.0796 15.9169 17.272 16.8921 17.272 18.0922V33.9079C17.272 35.3291 18.4283 36.4854 19.8496 36.4854H32.1506C33.328 36.4854 34.3227 35.6917 34.6298 34.6115H23.3642C21.0382 34.6115 19.1459 32.7192 19.1459 30.3932Z" fill="white"/>
<path d="M31.2136 18.0922C31.2136 18.6089 31.6339 19.0292 32.1506 19.0292H35.6652C36.463 19.0292 37.2098 19.2519 37.8467 19.6384C37.5958 19.0437 37.2302 18.4972 36.7601 18.0271L32.2157 13.4827C31.7458 13.0127 31.1994 12.6473 30.605 12.3964C30.9911 13.033 31.2137 13.7794 31.2137 14.5768V18.0922H31.2136Z" fill="white"/>
</svg>
