<svg width="52" height="52" viewBox="0 0 52 52" fill="none" xmlns="http://www.w3.org/2000/svg">
<rect width="52" height="52" rx="26" fill="#EAB05C"/>
<g clip-path="url(#clip0_255_22033)">
<path d="M32.5625 38.3594H31.7422V36.6094H20.2578V38.3594H19.4375C18.9841 38.3594 18.6172 38.7263 18.6172 39.1797C18.6172 39.6331 18.9841 40 19.4375 40H32.5625C33.0159 40 33.3828 39.6331 33.3828 39.1797C33.3828 38.7263 33.0159 38.3594 32.5625 38.3594Z" fill="white"/>
<path d="M26.1162 18.5792L26 18.3469L25.8887 18.5696C25.6866 18.9858 25.2773 19.0184 25.2719 19.0238L25.0139 19.0623L25.1909 19.2369C25.3852 19.4219 25.4809 19.7009 25.4313 19.9739L25.3904 20.2214L25.6219 20.1013C25.8543 19.9804 26.1383 19.9766 26.3782 20.1013L26.6096 20.2214L26.5672 19.9643C26.5231 19.7008 26.6105 19.4324 26.8003 19.2457L26.9862 19.0623L26.7282 19.0238C26.4638 18.9838 26.2356 18.8179 26.1162 18.5792Z" fill="white"/>
<path d="M39.1797 13.6406H35.006C35.0128 13.3678 35.0234 13.0979 35.0234 12.8203C35.0234 12.3669 34.6565 12 34.2031 12H17.7969C17.3435 12 16.9766 12.3669 16.9766 12.8203C16.9766 13.0979 16.9872 13.368 16.994 13.6406H12.8203C12.3669 13.6406 12 14.0075 12 14.4609V16.539C12 21.1185 15.6679 24.8386 20.1886 25.0792C21.1314 26.376 22.254 27.3387 23.5247 27.8855C23.3383 31.6286 21.3523 34.2211 20.7099 34.9687H31.2888C30.6466 34.2263 28.661 31.6492 28.4746 27.8855C29.7457 27.3389 30.8688 26.3762 31.8116 25.0792C36.3321 24.8385 40 21.1185 40 16.539V14.4609C40 14.0075 39.6331 13.6406 39.1797 13.6406ZM13.6406 16.539V15.2812H17.0757C17.3204 18.4066 18.0315 21.1466 19.1183 23.3043C16.0205 22.6068 13.6406 19.8445 13.6406 16.539ZM29.3069 19.0792L28.2551 20.115L28.497 21.5714C28.5483 21.8781 28.4217 22.1874 28.1702 22.3692C27.9178 22.5525 27.5862 22.5769 27.3098 22.4342L26 21.754L24.6902 22.4342C24.4131 22.5751 24.0814 22.5519 23.8299 22.3692C23.5783 22.1874 23.4518 21.8782 23.503 21.5714L23.745 20.115L22.6932 19.0792C22.4675 18.8569 22.3949 18.5288 22.4889 18.2413C22.585 17.9464 22.8398 17.7302 23.1474 17.6837L24.6069 17.4642L25.2663 16.1448C25.5434 15.5889 26.4567 15.5889 26.7339 16.1448L27.3932 17.4642L28.8527 17.6837C29.1603 17.7302 29.4151 17.9465 29.5112 18.2413C29.6073 18.5369 29.528 18.8613 29.3069 19.0792ZM38.3594 16.539C38.3594 19.8444 35.9795 22.6067 32.8818 23.3042C33.9685 21.1465 34.6797 18.4067 34.9243 15.2812H38.3594V16.539Z" fill="white"/>
</g>
<defs>
<clipPath id="clip0_255_22033">
<rect width="28" height="28" fill="white" transform="translate(12 12)"/>
</clipPath>
</defs>
</svg>
