<svg width="52" height="52" viewBox="0 0 52 52" fill="none" xmlns="http://www.w3.org/2000/svg">
<rect width="52.0003" height="52.0001" rx="26.0001" fill="#EAB05C"/>
<path d="M26.0002 40.0001C27.2098 40.0001 28.2542 39.282 28.7314 38.2501H23.269C23.7462 39.282 24.7906 40.0001 26.0002 40.0001Z" fill="white"/>
<path d="M25.1797 32.7812V26.1472C23.3098 25.8169 21.8984 24.3807 21.8984 22.664C21.8984 22.211 22.2657 21.8437 22.7187 21.8437C23.1718 21.8437 23.539 22.211 23.539 22.664C23.539 23.4958 24.2249 24.205 25.1797 24.4683V12.5607C24.6166 12.2 23.9558 12 23.2656 12C21.5405 12 20.069 13.2456 19.7692 14.9268C17.7938 15.5045 16.4297 17.3113 16.4297 19.3828C16.4297 20.4904 16.8218 21.549 17.539 22.3906C16.8219 23.2322 16.4297 24.2908 16.4297 25.3984C16.4297 27.47 17.7938 29.2767 19.7692 29.8544C20.0689 31.5355 21.5405 32.7812 23.2656 32.7812H25.1797Z" fill="white"/>
<path d="M21.8984 35.2423C21.8984 35.9974 22.5106 36.6095 23.2656 36.6095H28.7344C29.4895 36.6095 30.1016 35.9974 30.1016 35.2423V34.422H21.8984V35.2423Z" fill="white"/>
<path d="M32.2308 14.9268C31.9311 13.2457 30.4595 12 28.7344 12C28.0442 12 27.3834 12.2 26.8203 12.5607V18.6341C28.6902 18.9643 30.1016 20.4006 30.1016 22.1172C30.1016 22.5703 29.7343 22.9375 29.2812 22.9375C28.8282 22.9375 28.4609 22.5703 28.4609 22.1172C28.4609 21.2855 27.7751 20.5763 26.8203 20.3129V32.7813H28.7344C30.4595 32.7813 31.9311 31.5356 32.2308 29.8545C34.2062 29.2768 35.5703 27.47 35.5703 25.3985C35.5703 24.2908 35.1782 23.2323 34.4611 22.3907C35.1782 21.549 35.5703 20.4905 35.5703 19.3829C35.5703 17.3113 34.2062 15.5045 32.2308 14.9268Z" fill="white"/>
<path d="M37.5399 16.6487C37.2748 16.6487 37.0147 16.5204 36.8566 16.2833C36.6053 15.9063 36.7072 15.397 37.0841 15.1457L38.7248 14.052C39.1017 13.8006 39.611 13.9025 39.8623 14.2795C40.1136 14.6564 40.0117 15.1657 39.6348 15.417L37.9942 16.5108C37.8544 16.604 37.6963 16.6487 37.5399 16.6487Z" fill="white"/>
<path d="M39.1791 30.3205C39.0227 30.3205 38.8646 30.2759 38.7248 30.1826L37.0841 29.0889C36.7072 28.8376 36.6053 28.3283 36.8566 27.9513C37.1079 27.5743 37.6173 27.4725 37.9942 27.7238L39.6348 28.8176C40.0117 29.0689 40.1136 29.5782 39.8623 29.9551C39.7043 30.1922 39.4441 30.3205 39.1791 30.3205Z" fill="white"/>
<path d="M14.4603 16.6486C14.304 16.6486 14.1459 16.604 14.006 16.5108L12.3654 15.417C11.9884 15.1657 11.8866 14.6564 12.1378 14.2795C12.3892 13.9024 12.8985 13.8006 13.2754 14.052L14.916 15.1457C15.293 15.397 15.3949 15.9063 15.1436 16.2833C14.9855 16.5203 14.7254 16.6486 14.4603 16.6486Z" fill="white"/>
<path d="M12.8212 30.3206C12.5561 30.3206 12.2959 30.1923 12.1378 29.9552C11.8866 29.5782 11.9884 29.0689 12.3654 28.8176L14.006 27.7238C14.3829 27.4724 14.8923 27.5744 15.1436 27.9513C15.3949 28.3283 15.293 28.8376 14.916 29.0889L13.2754 30.1827C13.1356 30.2759 12.9775 30.3206 12.8212 30.3206Z" fill="white"/>
<path d="M14.4609 22.9375H12.8203C12.3673 22.9375 12 22.5702 12 22.1172C12 21.6642 12.3673 21.2969 12.8203 21.2969H14.4609C14.914 21.2969 15.2813 21.6642 15.2813 22.1172C15.2813 22.5702 14.914 22.9375 14.4609 22.9375Z" fill="white"/>
<path d="M39.1797 22.9375H37.5391C37.086 22.9375 36.7188 22.5702 36.7188 22.1172C36.7188 21.6642 37.086 21.2969 37.5391 21.2969H39.1797C39.6327 21.2969 40 21.6642 40 22.1172C40 22.5702 39.6327 22.9375 39.1797 22.9375Z" fill="white"/>
</svg>
