<svg width="42" height="40" viewBox="0 0 42 40" fill="none" xmlns="http://www.w3.org/2000/svg">
<rect width="42" height="40" rx="20" fill="#EAB05C"/>
<path d="M26.2331 23.328C26.0669 22.1985 25.5013 21.166 24.639 20.4178C23.7767 19.6696 22.6747 19.2553 21.5331 19.25H20.4691C19.3274 19.2553 18.2255 19.6696 17.3632 20.4178C16.5009 21.166 15.9353 22.1985 15.7691 23.328L15.2591 26.894C15.2428 27.0093 15.2536 27.1267 15.2905 27.2371C15.3275 27.3475 15.3897 27.4478 15.4721 27.53C15.6721 27.73 16.8991 28.75 21.0021 28.75C25.1051 28.75 26.3291 27.734 26.5321 27.53C26.6145 27.4478 26.6767 27.3475 26.7136 27.2371C26.7506 27.1267 26.7614 27.0093 26.7451 26.894L26.2331 23.328Z" fill="white"/>
<path d="M16.5601 19.8C15.5936 20.691 14.9648 21.8886 14.7801 23.19L14.4101 25.75C11.4401 25.73 10.5401 24.65 10.3901 24.43C10.3321 24.3501 10.2907 24.2593 10.2684 24.1632C10.2461 24.067 10.2433 23.9673 10.2601 23.87L10.4801 22.63C10.5947 21.982 10.8639 21.3711 11.2649 20.8492C11.6658 20.3274 12.1867 19.9099 12.7833 19.6322C13.38 19.3544 14.0348 19.2247 14.6923 19.2539C15.3497 19.2831 15.9904 19.4705 16.5601 19.8Z" fill="white"/>
<path d="M31.7399 23.87C31.7568 23.9673 31.754 24.067 31.7316 24.1632C31.7093 24.2593 31.6679 24.3501 31.6099 24.43C31.4599 24.65 30.5599 25.73 27.5899 25.75L27.2199 23.19C27.0352 21.8886 26.4064 20.691 25.4399 19.8C26.0096 19.4705 26.6503 19.2831 27.3078 19.2539C27.9652 19.2247 28.6201 19.3544 29.2167 19.6322C29.8133 19.9099 30.3342 20.3274 30.7352 20.8492C31.1361 21.3711 31.4053 21.982 31.5199 22.63L31.7399 23.87Z" fill="white"/>
<path d="M16.73 17.6C16.4783 17.957 16.1441 18.248 15.7559 18.4482C15.3676 18.6484 14.9368 18.7519 14.5 18.75C14.0643 18.75 13.6348 18.6465 13.2469 18.4479C12.859 18.2493 12.5239 17.9614 12.2691 17.608C12.0143 17.2545 11.8472 16.8455 11.7815 16.4147C11.7157 15.984 11.7533 15.5438 11.8911 15.1304C12.0289 14.717 12.263 14.3423 12.574 14.0371C12.885 13.7319 13.2641 13.505 13.68 13.3751C14.096 13.2452 14.5368 13.2159 14.9662 13.2898C15.3957 13.3637 15.8014 13.5386 16.15 13.8C16.0497 14.1921 15.9993 14.5953 16 15C16.0008 15.9171 16.2533 16.8165 16.73 17.6Z" fill="white"/>
<path d="M30.25 16C30.2503 16.3612 30.1793 16.7189 30.0412 17.0527C29.9031 17.3865 29.7006 17.6897 29.4451 17.9451C29.1897 18.2005 28.8865 18.4031 28.5527 18.5412C28.2189 18.6793 27.8612 18.7503 27.5 18.75C27.0632 18.7519 26.6324 18.6484 26.2441 18.4482C25.8559 18.248 25.5217 17.957 25.27 17.6C25.7467 16.8165 25.9993 15.9171 26 15C26.0007 14.5953 25.9503 14.1921 25.85 13.8C26.2586 13.4936 26.7444 13.307 27.2531 13.2611C27.7617 13.2152 28.2731 13.3119 28.7299 13.5403C29.1866 13.7687 29.5708 14.1198 29.8393 14.5542C30.1078 14.9887 30.25 15.4893 30.25 16Z" fill="white"/>
<path d="M21 18.75C23.0711 18.75 24.75 17.0711 24.75 15C24.75 12.9289 23.0711 11.25 21 11.25C18.9289 11.25 17.25 12.9289 17.25 15C17.25 17.0711 18.9289 18.75 21 18.75Z" fill="white"/>
</svg>
