<svg width="40" height="40" viewBox="0 0 40 40" fill="none" xmlns="http://www.w3.org/2000/svg">
<rect width="40" height="40" rx="20" fill="#EAB05C"/>
<path d="M25.2331 23.328C25.0669 22.1985 24.5013 21.166 23.639 20.4178C22.7767 19.6696 21.6747 19.2553 20.5331 19.25H19.4691C18.3274 19.2553 17.2255 19.6696 16.3632 20.4178C15.5009 21.166 14.9353 22.1985 14.7691 23.328L14.2591 26.894C14.2428 27.0093 14.2536 27.1267 14.2905 27.2371C14.3275 27.3475 14.3897 27.4478 14.4721 27.53C14.6721 27.73 15.8991 28.75 20.0021 28.75C24.1051 28.75 25.3291 27.734 25.5321 27.53C25.6145 27.4478 25.6767 27.3475 25.7136 27.2371C25.7506 27.1267 25.7614 27.0093 25.7451 26.894L25.2331 23.328Z" fill="white"/>
<path d="M15.5601 19.8001C14.5936 20.6911 13.9648 21.8887 13.7801 23.1901L13.4101 25.7501C10.4401 25.7301 9.5401 24.6501 9.3901 24.4301C9.33212 24.3502 9.29074 24.2595 9.26841 24.1633C9.24608 24.0671 9.24325 23.9674 9.2601 23.8701L9.4801 22.6301C9.59472 21.9821 9.86392 21.3712 10.2649 20.8494C10.6658 20.3275 11.1867 19.91 11.7833 19.6323C12.38 19.3546 13.0348 19.2248 13.6923 19.254C14.3497 19.2833 14.9904 19.4706 15.5601 19.8001Z" fill="white"/>
<path d="M30.7399 23.8701C30.7568 23.9674 30.754 24.0671 30.7316 24.1633C30.7093 24.2595 30.6679 24.3502 30.6099 24.4301C30.4599 24.6501 29.5599 25.7301 26.5899 25.7501L26.2199 23.1901C26.0352 21.8887 25.4064 20.6911 24.4399 19.8001C25.0096 19.4706 25.6503 19.2833 26.3078 19.254C26.9652 19.2248 27.6201 19.3546 28.2167 19.6323C28.8133 19.91 29.3342 20.3275 29.7352 20.8494C30.1361 21.3712 30.4053 21.9821 30.5199 22.6301L30.7399 23.8701Z" fill="white"/>
<path d="M15.73 17.6C15.4783 17.957 15.1441 18.248 14.7559 18.4482C14.3676 18.6484 13.9368 18.7519 13.5 18.75C13.0643 18.75 12.6348 18.6465 12.2469 18.4479C11.859 18.2493 11.5239 17.9614 11.2691 17.608C11.0143 17.2545 10.8472 16.8455 10.7815 16.4147C10.7157 15.984 10.7533 15.5438 10.8911 15.1304C11.0289 14.717 11.263 14.3423 11.574 14.0371C11.885 13.7319 12.2641 13.505 12.68 13.3751C13.096 13.2452 13.5368 13.2159 13.9662 13.2898C14.3957 13.3637 14.8014 13.5386 15.15 13.8C15.0497 14.1921 14.9993 14.5953 15 15C15.0008 15.9171 15.2533 16.8165 15.73 17.6Z" fill="white"/>
<path d="M29.25 16C29.2503 16.3612 29.1793 16.7189 29.0412 17.0527C28.9031 17.3865 28.7006 17.6897 28.4451 17.9451C28.1897 18.2005 27.8865 18.4031 27.5527 18.5412C27.2189 18.6793 26.8612 18.7503 26.5 18.75C26.0632 18.7519 25.6324 18.6484 25.2441 18.4482C24.8559 18.248 24.5217 17.957 24.27 17.6C24.7467 16.8165 24.9993 15.9171 25 15C25.0007 14.5953 24.9503 14.1921 24.85 13.8C25.2586 13.4936 25.7444 13.307 26.2531 13.2611C26.7617 13.2152 27.2731 13.3119 27.7299 13.5403C28.1866 13.7687 28.5708 14.1198 28.8393 14.5542C29.1078 14.9887 29.25 15.4893 29.25 16Z" fill="white"/>
<path d="M20 18.75C22.0711 18.75 23.75 17.0711 23.75 15C23.75 12.9289 22.0711 11.25 20 11.25C17.9289 11.25 16.25 12.9289 16.25 15C16.25 17.0711 17.9289 18.75 20 18.75Z" fill="white"/>
</svg>
