<svg width="110" height="48" viewBox="0 0 110 48" fill="none" xmlns="http://www.w3.org/2000/svg">
<rect x="0.5" y="0.5" width="47" height="47" rx="23.5" stroke="#F2F2F2"/>
<g clip-path="url(#clip0_255_22242)">
<path d="M26.2342 22.1624L34.9766 12H32.9049L25.3139 20.8238L19.2509 12H12.2581L21.4264 25.3432L12.2581 36H14.3298L22.3462 26.6817L28.7491 36H35.742L26.2337 22.1624H26.2342ZM23.3966 25.4608L22.4676 24.1321L15.0763 13.5596H18.2585L24.2234 22.0919L25.1523 23.4206L32.9059 34.5113H29.7238L23.3966 25.4613V25.4608Z" fill="white"/>
</g>
<rect x="62.5" y="0.5" width="47" height="47" rx="23.5" stroke="#F2F2F2"/>
<g clip-path="url(#clip1_255_22242)">
<path d="M80.2609 35.7553H74V19.5815H80.2609V35.7553ZM75.0434 34.7119H79.2175V20.625H75.0434V34.7119Z" fill="white"/>
<path d="M98.0001 35.7553H91.7392V26.8858C91.7392 26.0214 91.0384 25.3206 90.174 25.3206C89.3094 25.3206 88.6088 26.0214 88.6088 26.8858V35.7553H82.3479V19.5815H88.6088V20.6315C89.5538 19.9482 90.6904 19.5808 91.8565 19.5815C95.2413 19.5815 98.0001 22.3272 98.0001 25.7054V35.7553ZM92.7826 34.7119H96.9565V25.7054C96.9494 22.8948 94.6671 20.6213 91.8565 20.625C90.5718 20.625 89.3652 21.1663 88.4653 22.1445L87.5652 23.1293V20.625H83.3913V34.7119H87.5652V26.8858C87.5652 25.445 88.7332 24.2772 90.174 24.2772C91.6146 24.2772 92.7826 25.445 92.7826 26.8858V34.7119Z" fill="white"/>
<path d="M77.1304 18.5382C75.4015 18.5382 74 17.1367 74 15.4078C74 13.679 75.4015 12.2773 77.1304 12.2773C78.8594 12.2773 80.2609 13.679 80.2609 15.4078C80.2572 17.1352 78.8579 18.5348 77.1304 18.5382ZM77.1304 13.3209C75.9779 13.3209 75.0434 14.2553 75.0434 15.4078C75.0434 16.5605 75.9779 17.4948 77.1304 17.4948C78.2829 17.4948 79.2175 16.5605 79.2175 15.4078C79.2175 14.2553 78.2829 13.3209 77.1304 13.3209Z" fill="white"/>
</g>
<defs>
<clipPath id="clip0_255_22242">
<rect width="24" height="24" fill="white" transform="translate(12 12)"/>
</clipPath>
<clipPath id="clip1_255_22242">
<rect width="24" height="24" fill="white" transform="translate(74 12)"/>
</clipPath>
</defs>
</svg>
