<svg width="606" height="190" viewBox="0 0 606 190" fill="none" xmlns="http://www.w3.org/2000/svg">
<path d="M0.0100021 27.45V1.55H9.7C11.89 1.55 13.78 1.90001 15.36 2.60001C16.94 3.30001 18.15 4.31 19 5.63C19.85 6.95001 20.28 8.55 20.28 10.42C20.28 12.29 19.85 13.82 19 15.14C18.15 16.46 16.93 17.48 15.36 18.19C13.78 18.91 11.89 19.26 9.7 19.26H1.52L2.74 17.96V27.43H0L0.0100021 27.45ZM2.75 18.2L1.53 16.87H9.63C12.22 16.87 14.19 16.31 15.53 15.19C16.87 14.07 17.55 12.48 17.55 10.44C17.55 8.4 16.88 6.77 15.53 5.63C14.18 4.49001 12.22 3.93001 9.63 3.93001H1.53L2.75 2.64V18.22V18.2Z" fill="#EAB05C"/>
<path d="M30.9401 27.64C29.4801 27.64 28.2201 27.4 27.1501 26.92C26.0801 26.44 25.2601 25.77 24.6901 24.92C24.1201 24.07 23.8401 23.09 23.8401 21.98C23.8401 20.97 24.0801 20.05 24.5601 19.22C25.0401 18.39 25.8301 17.73 26.9301 17.22C28.0301 16.71 29.5001 16.46 31.3501 16.46H38.0501V18.42H31.4301C29.5501 18.42 28.2501 18.75 27.5301 19.42C26.8001 20.09 26.4401 20.91 26.4401 21.9C26.4401 23.01 26.8701 23.9 27.7301 24.56C28.5901 25.23 29.8001 25.56 31.3601 25.56C32.9201 25.56 34.1201 25.22 35.1901 24.54C36.2601 23.86 37.0501 22.88 37.5401 21.6L38.1301 23.41C37.6401 24.69 36.7801 25.72 35.5601 26.48C34.3401 27.24 32.8001 27.63 30.9501 27.63L30.9401 27.64ZM37.6401 27.45V23.16L37.5301 22.46V15.28C37.5301 13.63 37.0701 12.36 36.1401 11.47C35.2101 10.58 33.8401 10.14 32.0101 10.14C30.7501 10.14 29.5601 10.35 28.4201 10.77C27.2901 11.19 26.3201 11.74 25.5301 12.44L24.3501 10.48C25.3401 9.64 26.5201 8.99001 27.9001 8.54001C29.2801 8.08001 30.7401 7.86 32.2701 7.86C34.7901 7.86 36.7301 8.48 38.1001 9.73C39.4701 10.98 40.1501 12.87 40.1501 15.41V27.47H37.6301L37.6401 27.45Z" fill="#EAB05C"/>
<path d="M47.3 34.63V8.03H49.8201V13.88L49.5601 17.76L49.9301 21.68V34.63H47.3ZM57.3201 27.64C55.6401 27.64 54.12 27.25 52.7701 26.47C51.41 25.69 50.3301 24.57 49.5301 23.1C48.7301 21.63 48.33 19.84 48.33 17.72C48.33 15.6 48.72 13.8 49.51 12.34C50.3 10.87 51.37 9.76001 52.73 8.99001C54.09 8.23001 55.6201 7.84 57.3201 7.84C59.1701 7.84 60.83 8.25 62.3 9.08C63.77 9.91 64.92 11.07 65.76 12.56C66.6 14.05 67.0201 15.77 67.0201 17.72C67.0201 19.67 66.6 21.42 65.76 22.9C64.92 24.38 63.77 25.54 62.3 26.38C60.83 27.22 59.1701 27.64 57.3201 27.64ZM57.1401 25.31C58.5201 25.31 59.76 25 60.84 24.37C61.92 23.74 62.7901 22.85 63.4301 21.71C64.0701 20.56 64.3901 19.24 64.3901 17.73C64.3901 16.22 64.0701 14.91 63.4301 13.77C62.7901 12.64 61.92 11.75 60.84 11.11C59.75 10.47 58.5201 10.15 57.1401 10.15C55.7601 10.15 54.5201 10.47 53.4201 11.11C52.3201 11.75 51.46 12.64 50.83 13.77C50.2 14.9 49.8901 16.23 49.8901 17.73C49.8901 19.23 50.2 20.56 50.83 21.71C51.46 22.86 52.3201 23.75 53.4201 24.37C54.5201 25 55.7601 25.31 57.1401 25.31Z" fill="#EAB05C"/>
<path d="M80.41 27.64C78.76 27.64 77.3099 27.33 76.0799 26.72C74.8499 26.1 73.8899 25.18 73.2099 23.94C72.5299 22.71 72.1899 21.17 72.1899 19.32V8.04001H74.8199V19.03C74.8199 21.1 75.3299 22.66 76.3599 23.71C77.3799 24.76 78.8199 25.28 80.6699 25.28C82.0299 25.28 83.1999 25 84.1999 24.45C85.1999 23.9 85.9599 23.09 86.4899 22.03C87.0199 20.97 87.2899 19.7 87.2899 18.22V8.05H89.9199V27.47H87.3999V22.14L87.8099 23.1C87.1899 24.53 86.2399 25.65 84.9399 26.45C83.6399 27.25 82.13 27.65 80.41 27.65V27.64Z" fill="#EAB05C"/>
<path d="M102.72 27.64C101.26 27.64 100 27.4 98.9301 26.92C97.8601 26.44 97.0401 25.77 96.4701 24.92C95.9001 24.07 95.6201 23.09 95.6201 21.98C95.6201 20.97 95.8601 20.05 96.3401 19.22C96.8201 18.39 97.6101 17.73 98.7101 17.22C99.8101 16.71 101.28 16.46 103.13 16.46H109.83V18.42H103.21C101.33 18.42 100.03 18.75 99.3101 19.42C98.5801 20.09 98.2201 20.91 98.2201 21.9C98.2201 23.01 98.6501 23.9 99.5101 24.56C100.37 25.23 101.58 25.56 103.14 25.56C104.7 25.56 105.9 25.22 106.97 24.54C108.04 23.86 108.83 22.88 109.32 21.6L109.91 23.41C109.42 24.69 108.56 25.72 107.34 26.48C106.12 27.24 104.58 27.63 102.73 27.63L102.72 27.64ZM109.42 27.45V23.16L109.31 22.46V15.28C109.31 13.63 108.85 12.36 107.92 11.47C106.99 10.58 105.62 10.14 103.79 10.14C102.53 10.14 101.34 10.35 100.2 10.77C99.0701 11.19 98.1001 11.74 97.3101 12.44L96.1301 10.48C97.1201 9.64 98.3001 8.99001 99.6801 8.54001C101.06 8.08001 102.52 7.86 104.05 7.86C106.57 7.86 108.51 8.48 109.88 9.73C111.25 10.98 111.93 12.87 111.93 15.41V27.47H109.41L109.42 27.45Z" fill="#EAB05C"/>
<path d="M129.32 27.45V1.55H131.58L149.45 24.05H148.27V1.55H150.97V27.45H148.71L130.88 4.95H132.06V27.45H129.32Z" fill="#EAB05C"/>
<path d="M167.1 27.64C165.08 27.64 163.3 27.21 161.77 26.36C160.24 25.51 159.05 24.34 158.18 22.85C157.32 21.36 156.89 19.65 156.89 17.73C156.89 15.81 157.3 14.1 158.13 12.62C158.96 11.14 160.09 9.97 161.53 9.12C162.97 8.27 164.59 7.84 166.4 7.84C168.21 7.84 169.85 8.25 171.27 9.08C172.69 9.91 173.8 11.07 174.62 12.56C175.43 14.05 175.84 15.77 175.84 17.72C175.84 17.84 175.84 17.97 175.82 18.11C175.81 18.25 175.8 18.39 175.8 18.54H158.89V16.58H174.39L173.35 17.36C173.35 15.95 173.05 14.7 172.44 13.61C171.83 12.51 171.01 11.65 169.98 11.04C168.94 10.42 167.75 10.12 166.39 10.12C165.03 10.12 163.86 10.43 162.8 11.04C161.74 11.66 160.91 12.52 160.32 13.63C159.73 14.74 159.43 16.01 159.43 17.44V17.85C159.43 19.33 159.76 20.63 160.41 21.75C161.06 22.87 161.98 23.75 163.15 24.38C164.32 25.01 165.66 25.32 167.16 25.32C168.34 25.32 169.45 25.11 170.47 24.69C171.49 24.27 172.38 23.63 173.12 22.77L174.6 24.47C173.74 25.51 172.66 26.3 171.36 26.84C170.06 27.38 168.64 27.65 167.09 27.65L167.1 27.64Z" fill="#EAB05C"/>
<path d="M184.79 27.45L177.46 8.03H179.98L186.64 26.05H185.49L192.33 8.03H194.59L201.36 26.05H200.21L206.98 8.03H209.38L202.02 27.45H199.54L193.03 10.5H193.81L187.26 27.45H184.78H184.79Z" fill="#EAB05C"/>
<path d="M234.96 27.68C232.99 27.68 231.17 27.35 229.5 26.7C227.84 26.05 226.39 25.13 225.17 23.94C223.95 22.76 223 21.36 222.32 19.76C221.64 18.16 221.3 16.41 221.3 14.51C221.3 12.61 221.64 10.86 222.32 9.26001C223 7.66001 223.95 6.26 225.19 5.08C226.42 3.9 227.87 2.98001 229.54 2.32001C231.21 1.67001 233.02 1.34 235 1.34C236.98 1.34 238.78 1.65001 240.42 2.26001C242.06 2.88001 243.46 3.81001 244.62 5.07001L242.92 6.81C241.83 5.73 240.64 4.95 239.33 4.48C238.02 4.01 236.62 3.78 235.11 3.78C233.51 3.78 232.03 4.05 230.69 4.58C229.35 5.11 228.17 5.86 227.18 6.84C226.18 7.81 225.4 8.95001 224.85 10.24C224.3 11.53 224.02 12.96 224.02 14.51C224.02 16.06 224.3 17.46 224.85 18.76C225.41 20.07 226.18 21.21 227.18 22.18C228.18 23.15 229.35 23.91 230.69 24.44C232.03 24.97 233.5 25.23 235.07 25.23C236.55 25.23 237.95 25.01 239.27 24.56C240.59 24.12 241.8 23.36 242.91 22.3L244.46 24.37C243.23 25.46 241.78 26.28 240.13 26.83C238.48 27.38 236.75 27.66 234.95 27.66L234.96 27.68ZM244.47 24.38L241.84 24.05V14.5H244.47V24.38Z" fill="#EAB05C"/>
<path d="M259.67 27.64C258.02 27.64 256.57 27.33 255.34 26.72C254.11 26.11 253.15 25.18 252.47 23.94C251.79 22.71 251.45 21.17 251.45 19.32V8.04001H254.08V19.03C254.08 21.1 254.59 22.66 255.62 23.71C256.64 24.76 258.08 25.28 259.93 25.28C261.29 25.28 262.46 25 263.46 24.45C264.46 23.9 265.22 23.09 265.75 22.03C266.28 20.97 266.55 19.7 266.55 18.22V8.05H269.18V27.47H266.66V22.14L267.07 23.1C266.45 24.53 265.5 25.65 264.2 26.45C262.9 27.25 261.39 27.65 259.67 27.65V27.64Z" fill="#EAB05C"/>
<path d="M277.84 3.74001C277.3 3.74001 276.84 3.55001 276.47 3.18001C276.1 2.81001 275.92 2.37001 275.92 1.85001C275.92 1.33001 276.11 0.890009 276.47 0.540009C276.84 0.180009 277.3 0 277.84 0C278.38 0 278.84 0.170004 279.21 0.520004C279.58 0.870004 279.76 1.3 279.76 1.81C279.76 2.35 279.58 2.81001 279.22 3.18001C278.86 3.55001 278.4 3.74001 277.83 3.74001H277.84ZM276.51 27.45V8.03H279.14V27.45H276.51Z" fill="#EAB05C"/>
<path d="M286.46 27.45V8.03H288.98V13.36L288.57 12.36C289.19 10.95 290.17 9.85 291.53 9.05C292.89 8.25 294.5 7.85001 296.38 7.85001C297.96 7.85001 299.35 8.15001 300.54 8.76001C301.74 9.37001 302.67 10.28 303.35 11.52C304.03 12.76 304.37 14.31 304.37 16.18V27.47H301.74V16.44C301.74 14.39 301.23 12.85 300.2 11.8C299.18 10.75 297.74 10.23 295.89 10.23C294.51 10.23 293.31 10.51 292.28 11.06C291.26 11.62 290.47 12.42 289.91 13.47C289.35 14.52 289.08 15.78 289.08 17.26V27.47H286.45L286.46 27.45Z" fill="#EAB05C"/>
<path d="M319.73 27.64C317.71 27.64 315.93 27.21 314.4 26.36C312.87 25.51 311.67 24.34 310.81 22.85C309.95 21.36 309.52 19.65 309.52 17.73C309.52 15.81 309.93 14.1 310.76 12.62C311.59 11.14 312.72 9.97 314.16 9.12C315.6 8.27 317.22 7.84 319.03 7.84C320.84 7.84 322.48 8.25 323.9 9.08C325.32 9.91 326.43 11.07 327.25 12.56C328.06 14.05 328.47 15.77 328.47 17.72C328.47 17.84 328.47 17.97 328.45 18.11C328.44 18.25 328.43 18.39 328.43 18.54H311.52V16.58H327.02L325.98 17.36C325.98 15.95 325.68 14.7 325.07 13.61C324.46 12.52 323.65 11.65 322.61 11.04C321.57 10.42 320.38 10.12 319.02 10.12C317.66 10.12 316.49 10.43 315.43 11.04C314.37 11.66 313.54 12.52 312.95 13.63C312.36 14.74 312.06 16.01 312.06 17.44V17.85C312.06 19.33 312.39 20.63 313.04 21.75C313.69 22.87 314.61 23.75 315.78 24.38C316.95 25.01 318.29 25.32 319.79 25.32C320.97 25.32 322.08 25.11 323.1 24.69C324.12 24.27 325.01 23.63 325.75 22.77L327.23 24.47C326.37 25.51 325.29 26.3 323.99 26.84C322.69 27.38 321.27 27.65 319.72 27.65L319.73 27.64Z" fill="#EAB05C"/>
<path d="M338.74 27.64C337.28 27.64 336.02 27.4 334.95 26.92C333.88 26.44 333.06 25.77 332.49 24.92C331.92 24.07 331.64 23.09 331.64 21.98C331.64 20.97 331.88 20.05 332.36 19.22C332.84 18.39 333.63 17.73 334.73 17.22C335.83 16.71 337.3 16.46 339.15 16.46H345.85V18.42H339.23C337.35 18.42 336.05 18.75 335.33 19.42C334.6 20.09 334.24 20.91 334.24 21.9C334.24 23.01 334.67 23.9 335.53 24.56C336.39 25.23 337.6 25.56 339.16 25.56C340.72 25.56 341.92 25.22 342.99 24.54C344.06 23.86 344.85 22.88 345.34 21.6L345.93 23.41C345.44 24.69 344.58 25.72 343.36 26.48C342.14 27.24 340.6 27.63 338.75 27.63L338.74 27.64ZM345.44 27.45V23.16L345.33 22.46V15.28C345.33 13.63 344.87 12.36 343.94 11.47C343.02 10.58 341.64 10.14 339.82 10.14C338.56 10.14 337.36 10.35 336.23 10.77C335.1 11.19 334.13 11.74 333.34 12.44L332.16 10.48C333.15 9.64 334.33 8.99001 335.71 8.54001C337.09 8.08001 338.55 7.86 340.08 7.86C342.6 7.86 344.54 8.48 345.91 9.73C347.28 10.98 347.96 12.87 347.96 15.41V27.47H345.44V27.45Z" fill="#EAB05C"/>
<g style="mix-blend-mode:luminosity">
<path d="M605.069 20.1104H357.199" stroke="white" stroke-opacity="0.44" stroke-miterlimit="10"/>
</g>
<path d="M1.24023 101.431V60.8306H7.45023L32.9102 92.1506H29.8402V60.8306H37.2602V101.431H31.0502L5.65023 70.1106H8.72023V101.431H1.24023Z" fill="white"/>
<path d="M56.8703 101.841C54.5503 101.841 52.5203 101.441 50.7803 100.651C49.0403 99.8606 47.7003 98.7606 46.7503 97.3406C45.8003 95.9306 45.3303 94.3306 45.3303 92.5506C45.3303 90.7706 45.7503 89.2406 46.5803 87.8506C47.4103 86.4606 48.7803 85.3606 50.6703 84.5406C52.5603 83.7306 55.0803 83.3206 58.2103 83.3206H67.2003V88.1306H58.7303C56.2903 88.1306 54.6403 88.5306 53.7703 89.3206C52.9003 90.1106 52.4603 91.1106 52.4603 92.3106C52.4603 93.5906 52.9803 94.6106 54.0303 95.3806C55.0703 96.1506 56.5203 96.5406 58.3803 96.5406C60.2403 96.5406 61.7503 96.1306 63.1703 95.3206C64.5803 94.5106 65.6103 93.3106 66.2703 91.7206L67.4303 96.0706C66.7303 97.8906 65.5003 99.3006 63.7203 100.301C61.9403 101.301 59.6603 101.811 56.8803 101.811L56.8703 101.841ZM66.6103 101.431V95.1107L66.2603 93.8307V82.8706C66.2603 80.7406 65.6103 79.0906 64.3203 77.9106C63.0303 76.7306 61.0603 76.1406 58.4303 76.1406C56.7303 76.1406 55.0503 76.4106 53.3803 76.9506C51.7203 77.4906 50.2903 78.2506 49.0903 79.2106L46.2503 73.9306C47.9503 72.6506 49.9403 71.6906 52.2203 71.0306C54.5003 70.3706 56.8803 70.0406 59.3503 70.0406C63.8703 70.0406 67.3503 71.1206 69.7903 73.2906C72.2303 75.4606 73.4403 78.7806 73.4403 83.2706V101.421H66.6003L66.6103 101.431Z" fill="white"/>
<path d="M78.6201 76.2606V70.4606H99.2701V76.2606H78.6201ZM94.3901 101.841C90.9901 101.841 88.3601 100.961 86.5001 99.2006C84.6401 97.4406 83.7201 94.8606 83.7201 91.4606V63.6206H90.9101V91.2306C90.9101 92.7006 91.3001 93.8406 92.0701 94.6506C92.8401 95.4606 93.9301 95.8706 95.3201 95.8706C96.9001 95.8706 98.2201 95.4506 99.2601 94.5906L101.35 99.7506C100.46 100.451 99.4001 100.971 98.1601 101.321C96.9201 101.671 95.6701 101.841 94.3901 101.841Z" fill="white"/>
<path d="M110.98 65.3506C109.63 65.3506 108.51 64.9306 107.64 64.0706C106.77 63.2206 106.34 62.1806 106.34 60.9406C106.34 59.7806 106.78 58.7706 107.64 57.9206C108.51 57.0706 109.62 56.6406 110.98 56.6406C112.34 56.6406 113.44 57.0406 114.31 57.8306C115.18 58.6206 115.61 59.6406 115.61 60.8706C115.61 62.1006 115.18 63.1606 114.33 64.0306C113.48 64.9006 112.36 65.3306 110.97 65.3306L110.98 65.3506ZM107.38 101.431V70.4606H114.57V101.431H107.38Z" fill="white"/>
<path d="M138.01 101.841C134.88 101.841 132.06 101.151 129.57 99.7806C127.08 98.4106 125.11 96.5206 123.68 94.1306C122.25 91.7406 121.53 89.0106 121.53 85.9506C121.53 82.8906 122.24 80.0706 123.68 77.7106C125.12 75.3506 127.06 73.4906 129.54 72.1106C132.01 70.7406 134.84 70.0506 138.01 70.0506C141.18 70.0506 144.07 70.7406 146.56 72.1106C149.05 73.4806 151.01 75.3506 152.42 77.7106C153.83 80.0706 154.54 82.8106 154.54 85.9506C154.54 89.0906 153.83 91.7806 152.42 94.1606C151.01 96.5406 149.05 98.4106 146.53 99.7906C144.02 101.161 141.17 101.851 138 101.851L138.01 101.841ZM138.01 95.6906C139.79 95.6906 141.37 95.2906 142.77 94.5006C144.16 93.7106 145.25 92.5706 146.05 91.0806C146.84 89.5906 147.24 87.8806 147.24 85.9506C147.24 84.0206 146.84 82.2706 146.05 80.8206C145.26 79.3706 144.17 78.2506 142.77 77.4606C141.38 76.6706 139.81 76.2706 138.07 76.2706C136.33 76.2706 134.76 76.6706 133.37 77.4606C131.98 78.2506 130.88 79.3706 130.06 80.8206C129.25 82.2706 128.84 83.9806 128.84 85.9506C128.84 87.9206 129.25 89.6006 130.06 91.0806C130.87 92.5706 131.97 93.7106 133.37 94.5006C134.76 95.2906 136.31 95.6906 138.01 95.6906Z" fill="white"/>
<path d="M161.56 101.431V70.4606H168.46V78.8706L167.24 76.2606C168.28 74.2906 169.84 72.7606 171.91 71.6806C173.98 70.6006 176.37 70.0606 179.07 70.0606C181.58 70.0606 183.8 70.5406 185.71 71.5106C187.62 72.4806 189.15 73.9706 190.29 75.9806C191.43 77.9906 192 80.5606 192 83.6906V101.441H184.75V84.6206C184.75 81.8706 184.11 79.8306 182.84 78.4706C181.56 77.1206 179.75 76.4406 177.39 76.4406C175.69 76.4406 174.18 76.7906 172.87 77.4806C171.55 78.1806 170.54 79.2106 169.83 80.5806C169.11 81.9506 168.76 83.6806 168.76 85.7706V101.431H161.57H161.56Z" fill="white"/>
<path d="M210.57 101.841C208.25 101.841 206.22 101.441 204.48 100.651C202.74 99.8606 201.4 98.7606 200.45 97.3406C199.5 95.9306 199.03 94.3306 199.03 92.5506C199.03 90.7706 199.45 89.2406 200.28 87.8506C201.11 86.4606 202.47 85.3606 204.37 84.5406C206.26 83.7306 208.78 83.3206 211.91 83.3206H220.9V88.1306H212.43C209.99 88.1306 208.34 88.5306 207.47 89.3206C206.6 90.1106 206.17 91.1106 206.17 92.3106C206.17 93.5906 206.69 94.6106 207.74 95.3806C208.78 96.1506 210.23 96.5406 212.09 96.5406C213.95 96.5406 215.46 96.1306 216.88 95.3206C218.29 94.5106 219.33 93.3106 219.98 91.7206L221.14 96.0706C220.44 97.8906 219.21 99.3006 217.43 100.301C215.65 101.311 213.37 101.811 210.59 101.811L210.57 101.841ZM220.31 101.431V95.1107L219.96 93.8307V82.8706C219.96 80.7406 219.31 79.0906 218.02 77.9106C216.72 76.7306 214.76 76.1406 212.13 76.1406C210.43 76.1406 208.75 76.4106 207.08 76.9506C205.42 77.4906 203.99 78.2506 202.79 79.2106L199.95 73.9306C201.65 72.6506 203.64 71.6906 205.92 71.0306C208.2 70.3706 210.58 70.0406 213.05 70.0406C217.57 70.0406 221.05 71.1206 223.49 73.2906C225.93 75.4606 227.14 78.7806 227.14 83.2706V101.421H220.3L220.31 101.431Z" fill="white"/>
<path d="M236.49 101.431V58.3906H243.68V101.431H236.49Z" fill="white"/>
<path d="M269.9 101.431V60.8306H287.7C292.03 60.8306 295.87 61.6706 299.21 63.3506C302.55 65.0306 305.16 67.4006 307.01 70.4606C308.87 73.5106 309.79 77.0706 309.79 81.1306C309.79 85.1906 308.86 88.7506 307.01 91.8006C305.15 94.8506 302.55 97.2206 299.21 98.9006C295.87 100.581 292.03 101.421 287.7 101.421H269.9V101.431ZM277.44 95.0506H287.24C290.29 95.0506 292.93 94.4706 295.16 93.3106C297.38 92.1506 299.12 90.5306 300.38 88.4406C301.64 86.3506 302.26 83.9206 302.26 81.1306C302.26 78.3406 301.63 75.8106 300.38 73.7606C299.12 71.7106 297.38 70.1106 295.16 68.9506C292.94 67.7906 290.3 67.2106 287.24 67.2106H277.44V95.0506Z" fill="white"/>
<path d="M320.77 65.3506C319.42 65.3506 318.31 64.9306 317.44 64.0706C316.57 63.2206 316.13 62.1806 316.13 60.9406C316.13 59.7806 316.56 58.7706 317.44 57.9206C318.31 57.0706 319.42 56.6406 320.77 56.6406C322.12 56.6406 323.23 57.0406 324.11 57.8306C324.98 58.6206 325.41 59.6406 325.41 60.8706C325.41 62.1006 324.98 63.1606 324.13 64.0306C323.28 64.9006 322.16 65.3306 320.77 65.3306V65.3506ZM317.17 101.431V70.4606H324.36V101.431H317.17Z" fill="white"/>
<path d="M346.98 100.041C344 100.041 341.33 99.4106 338.98 98.1506C336.62 96.8906 334.76 95.1406 333.38 92.9006C332.01 90.6606 331.32 88.0506 331.32 85.0706C331.32 82.0906 332.01 79.4207 333.38 77.1507C334.75 74.8906 336.62 73.1407 338.98 71.9007C341.34 70.6607 344.01 70.0406 346.98 70.0406C349.61 70.0406 351.98 70.5706 354.09 71.6306C356.2 72.6906 357.87 74.3306 359.11 76.5306C360.35 78.7306 360.97 81.5806 360.97 85.0606C360.97 88.5406 360.35 91.2706 359.11 93.4706C357.87 95.6706 356.2 97.3206 354.09 98.4006C351.98 99.4806 349.61 100.021 346.98 100.021V100.041ZM347.91 113.091C345.01 113.091 342.22 112.711 339.53 111.961C336.84 111.211 334.61 110.091 332.83 108.631L336.08 103.241C337.43 104.361 339.13 105.271 341.18 105.971C343.23 106.671 345.36 107.011 347.56 107.011C350.92 107.011 353.4 106.231 354.98 104.661C356.56 103.091 357.36 100.731 357.36 97.5606V92.0506L357.94 85.0906L357.71 78.0706V70.4706H364.61V96.7406C364.61 102.351 363.18 106.471 360.32 109.121C357.46 111.771 353.32 113.091 347.91 113.091ZM348.08 93.8907C349.9 93.8907 351.52 93.5107 352.95 92.7607C354.38 92.0107 355.49 90.9606 356.28 89.6306C357.07 88.3006 357.47 86.7807 357.47 85.0807C357.47 83.3807 357.07 81.7606 356.28 80.4406C355.49 79.1306 354.38 78.1006 352.95 77.3706C351.52 76.6406 349.9 76.2706 348.08 76.2706C346.26 76.2706 344.63 76.6406 343.18 77.3706C341.73 78.1106 340.61 79.1306 339.82 80.4406C339.03 81.7606 338.63 83.3007 338.63 85.0807C338.63 86.8607 339.03 88.3006 339.82 89.6306C340.61 90.9606 341.73 92.0107 343.18 92.7607C344.63 93.5107 346.26 93.8907 348.08 93.8907Z" fill="white"/>
<path d="M377.78 65.3506C376.43 65.3506 375.31 64.9306 374.45 64.0706C373.58 63.2206 373.15 62.1806 373.15 60.9406C373.15 59.7806 373.58 58.7706 374.45 57.9206C375.32 57.0706 376.43 56.6406 377.78 56.6406C379.13 56.6406 380.24 57.0406 381.11 57.8306C381.98 58.6206 382.41 59.6406 382.41 60.8706C382.41 62.1006 381.98 63.1606 381.13 64.0306C380.28 64.9006 379.16 65.3306 377.77 65.3306L377.78 65.3506ZM374.18 101.431V70.4606H381.37V101.431H374.18Z" fill="white"/>
<path d="M386.77 76.2606V70.4606H407.42V76.2606H386.77ZM402.55 101.841C399.15 101.841 396.52 100.961 394.66 99.2006C392.8 97.4406 391.88 94.8606 391.88 91.4606V63.6206H399.07V91.2306C399.07 92.7006 399.45 93.8406 400.23 94.6506C401 95.4606 402.09 95.8706 403.48 95.8706C405.06 95.8706 406.38 95.4506 407.42 94.5906L409.51 99.7506C408.62 100.451 407.56 100.971 406.32 101.321C405.08 101.671 403.83 101.841 402.55 101.841Z" fill="white"/>
<path d="M423.72 101.841C421.4 101.841 419.37 101.441 417.63 100.651C415.89 99.8606 414.55 98.7606 413.6 97.3406C412.65 95.9306 412.18 94.3306 412.18 92.5506C412.18 90.7706 412.6 89.2406 413.43 87.8506C414.26 86.4606 415.62 85.3606 417.52 84.5406C419.41 83.7306 421.93 83.3206 425.06 83.3206H434.05V88.1306H425.58C423.14 88.1306 421.49 88.5306 420.62 89.3206C419.75 90.1106 419.32 91.1106 419.32 92.3106C419.32 93.5906 419.84 94.6106 420.89 95.3806C421.93 96.1506 423.38 96.5406 425.24 96.5406C427.1 96.5406 428.61 96.1306 430.03 95.3206C431.44 94.5106 432.47 93.3106 433.13 91.7206L434.29 96.0706C433.59 97.8906 432.36 99.3006 430.58 100.301C428.8 101.311 426.52 101.811 423.74 101.811L423.72 101.841ZM433.46 101.431V95.1107L433.11 93.8307V82.8706C433.11 80.7406 432.46 79.0906 431.17 77.9106C429.87 76.7306 427.91 76.1406 425.28 76.1406C423.58 76.1406 421.9 76.4106 420.23 76.9506C418.57 77.4906 417.14 78.2506 415.94 79.2106L413.1 73.9306C414.8 72.6506 416.79 71.6906 419.07 71.0306C421.35 70.3706 423.73 70.0406 426.2 70.0406C430.72 70.0406 434.2 71.1206 436.64 73.2906C439.08 75.4606 440.29 78.7806 440.29 83.2706V101.421H433.45L433.46 101.431Z" fill="white"/>
<path d="M449.64 101.431V58.3906H456.83V101.431H449.64Z" fill="white"/>
<path d="M483.05 101.431V60.8306H490.59V101.431H483.05Z" fill="white"/>
<path d="M501.55 101.431V60.8306H519.35C523.68 60.8306 527.52 61.6706 530.86 63.3506C534.2 65.0306 536.81 67.4006 538.66 70.4606C540.52 73.5106 541.44 77.0706 541.44 81.1306C541.44 85.1906 540.51 88.7506 538.66 91.8006C536.8 94.8506 534.2 97.2206 530.86 98.9006C527.52 100.581 523.68 101.421 519.35 101.421H501.55V101.431ZM509.09 95.0506H518.89C521.94 95.0506 524.58 94.4706 526.81 93.3106C529.03 92.1506 530.77 90.5306 532.03 88.4406C533.29 86.3506 533.91 83.9206 533.91 81.1306C533.91 78.3406 533.28 75.8106 532.03 73.7606C530.77 71.7106 529.03 70.1106 526.81 68.9506C524.59 67.7906 521.95 67.2106 518.89 67.2106H509.09V95.0506Z" fill="white"/>
<path d="M3.26025 188.431V125.431H17.9303V188.431H3.26025Z" fill="#EAB05C"/>
<path d="M52.5802 189.151C48.0202 189.151 43.9102 188.111 40.2502 186.051C36.5902 183.981 33.7102 181.091 31.6102 177.361C29.5102 173.641 28.4602 169.261 28.4602 164.221C28.4602 159.181 29.5102 154.801 31.6102 151.081C33.7102 147.361 36.5902 144.461 40.2502 142.391C43.9102 140.321 48.0202 139.291 52.5802 139.291C56.6602 139.291 60.2302 140.191 63.2902 141.991C66.3502 143.791 68.7202 146.521 70.4002 150.181C72.0802 153.841 72.9202 158.521 72.9202 164.221C72.9202 169.921 72.1102 174.541 70.4902 178.261C68.8702 181.981 66.5402 184.731 63.5202 186.501C60.4902 188.271 56.8402 189.151 52.5802 189.151ZM54.9202 177.631C57.2602 177.631 59.3602 177.111 61.2202 176.051C63.0802 175.001 64.5602 173.461 65.6802 171.421C66.7902 169.381 67.3402 166.981 67.3402 164.221C67.3402 161.461 66.7902 159.001 65.6802 157.021C64.5702 155.041 63.0802 153.531 61.2202 152.481C59.3602 151.431 57.2602 150.901 54.9202 150.901C52.5802 150.901 50.5702 151.431 48.7102 152.481C46.8502 153.531 45.3702 155.051 44.2502 157.021C43.1402 159.001 42.5802 161.401 42.5802 164.221C42.5802 167.041 43.1302 169.381 44.2502 171.421C45.3602 173.461 46.8402 175.011 48.7102 176.051C50.5702 177.101 52.6402 177.631 54.9202 177.631ZM67.7002 188.431V178.531L67.9702 164.131L67.0702 149.821V121.651H81.1102V188.431H67.7002Z" fill="#EAB05C"/>
<path d="M118.1 189.151C112.58 189.151 107.75 188.071 103.61 185.911C99.4703 183.751 96.2603 180.791 93.9803 177.041C91.7003 173.291 90.5603 169.021 90.5603 164.211C90.5603 159.401 91.6503 155.121 93.8403 151.341C96.0303 147.561 99.0903 144.611 103.02 142.471C106.95 140.341 111.37 139.281 116.29 139.281C121.21 139.281 125.3 140.301 129.12 142.341C132.93 144.381 135.94 147.261 138.16 150.981C140.38 154.701 141.49 159.171 141.49 164.391C141.49 164.931 141.46 165.551 141.4 166.241C141.34 166.931 141.28 167.581 141.22 168.171H101.89V159.981H133.84L128.35 162.411C128.41 159.891 127.93 157.701 126.91 155.841C125.89 153.981 124.48 152.531 122.68 151.471C120.88 150.421 118.78 149.901 116.38 149.901C113.98 149.901 111.87 150.431 110.04 151.471C108.21 152.521 106.78 153.991 105.76 155.881C104.74 157.771 104.23 160.011 104.23 162.591V164.751C104.23 167.451 104.83 169.791 106.03 171.771C107.23 173.751 108.88 175.271 110.98 176.311C113.08 177.361 115.6 177.891 118.54 177.891C121.06 177.891 123.29 177.501 125.25 176.721C127.2 175.941 128.99 174.771 130.6 173.211L138.07 181.311C135.85 183.831 133.06 185.771 129.7 187.121C126.34 188.471 122.47 189.141 118.09 189.141L118.1 189.151Z" fill="#EAB05C"/>
<path d="M164.45 189.151C160.73 189.151 157.52 188.501 154.82 187.221C152.12 185.931 150.03 184.181 148.57 181.951C147.1 179.731 146.36 177.241 146.36 174.481C146.36 171.721 147.06 169.161 148.47 166.971C149.88 164.781 152.12 163.091 155.18 161.891C158.24 160.691 162.26 160.091 167.24 160.091H180.02V168.191H168.68C165.38 168.191 163.11 168.731 161.89 169.811C160.66 170.891 160.05 172.241 160.05 173.861C160.05 175.661 160.75 177.091 162.17 178.141C163.58 179.191 165.48 179.711 167.88 179.711C170.28 179.711 172.42 179.171 174.31 178.091C176.2 177.011 177.53 175.361 178.32 173.141L180.48 179.711C179.46 182.711 177.6 185.041 174.9 186.691C172.2 188.341 168.72 189.161 164.46 189.161L164.45 189.151ZM179.21 188.431V178.981L178.31 176.911V159.991C178.31 156.991 177.39 154.651 175.56 152.971C173.73 151.291 170.92 150.451 167.14 150.451C164.56 150.451 162.02 150.861 159.53 151.671C157.04 152.481 154.9 153.581 153.1 154.951L148.15 145.141C150.79 143.221 153.97 141.761 157.69 140.771C161.41 139.781 165.19 139.291 169.03 139.291C176.41 139.291 182.14 141.031 186.22 144.511C190.3 147.991 192.34 153.421 192.34 160.801V188.431H179.2H179.21Z" fill="#EAB05C"/>
<path d="M199.28 150.811V140.011H232.85V150.811H199.28ZM224.84 189.151C219.14 189.151 214.7 187.701 211.52 184.791C208.34 181.881 206.75 177.541 206.75 171.781V129.301H220.88V171.511C220.88 173.551 221.4 175.141 222.46 176.281C223.51 177.421 224.93 177.991 226.74 177.991C229.02 177.991 230.94 177.391 232.5 176.191L236.19 186.091C234.81 187.111 233.11 187.881 231.11 188.381C229.1 188.891 227.01 189.141 224.85 189.141L224.84 189.151Z" fill="#EAB05C"/>
<path d="M244.19 188.431V121.651H258.23V153.421L255.08 149.371C256.82 146.131 259.31 143.641 262.55 141.901C265.79 140.161 269.48 139.291 273.62 139.291C277.46 139.291 280.89 140.051 283.92 141.581C286.95 143.111 289.33 145.451 291.08 148.601C292.82 151.751 293.69 155.791 293.69 160.711V188.431H279.65V162.871C279.65 158.971 278.79 156.091 277.08 154.231C275.37 152.371 272.95 151.441 269.83 151.441C267.61 151.441 265.61 151.921 263.85 152.881C262.08 153.841 260.7 155.251 259.71 157.111C258.72 158.971 258.23 161.431 258.23 164.491V188.431H244.19Z" fill="#EAB05C"/>
<path d="M329.69 189.151C324.59 189.151 320.04 188.071 316.05 185.911C312.06 183.751 308.93 180.791 306.65 177.041C304.37 173.291 303.23 169.021 303.23 164.211C303.23 159.401 304.37 155.041 306.65 151.291C308.93 147.541 312.06 144.601 316.05 142.471C320.04 140.341 324.59 139.281 329.69 139.281C334.79 139.281 339.44 140.351 343.46 142.471C347.48 144.601 350.63 147.541 352.91 151.291C355.19 155.041 356.33 159.341 356.33 164.211C356.33 169.081 355.19 173.361 352.91 177.081C350.63 180.801 347.48 183.741 343.46 185.901C339.44 188.061 334.85 189.141 329.69 189.141V189.151ZM329.69 177.631C332.09 177.631 334.2 177.111 336.03 176.051C337.86 175.001 339.33 173.461 340.44 171.421C341.55 169.381 342.11 166.981 342.11 164.221C342.11 161.461 341.55 159.001 340.44 157.021C339.33 155.041 337.86 153.531 336.03 152.481C334.2 151.431 332.11 150.901 329.78 150.901C327.45 150.901 325.34 151.431 323.48 152.481C321.62 153.531 320.13 155.051 319.02 157.021C317.91 159.001 317.35 161.401 317.35 164.221C317.35 167.041 317.9 169.381 319.02 171.421C320.13 173.461 321.61 175.011 323.48 176.051C325.34 177.101 327.41 177.631 329.69 177.631Z" fill="#EAB05C"/>
<path d="M365.69 188.431V140.011H379.1V153.421L376.58 149.371C378.32 146.131 380.81 143.641 384.05 141.901C387.29 140.161 390.98 139.291 395.12 139.291C398.96 139.291 402.39 140.051 405.42 141.581C408.45 143.111 410.83 145.451 412.58 148.601C414.32 151.751 415.19 155.791 415.19 160.711V188.431H401.15V162.871C401.15 158.971 400.29 156.091 398.58 154.231C396.87 152.371 394.45 151.441 391.33 151.441C389.11 151.441 387.11 151.921 385.35 152.881C383.58 153.841 382.2 155.251 381.21 157.111C380.22 158.971 379.73 161.431 379.73 164.491V188.431H365.69Z" fill="#EAB05C"/>
</svg>
