<svg width="24" height="24" viewBox="0 0 24 24" fill="none" xmlns="http://www.w3.org/2000/svg">
<path d="M23.2967 6.6094H18.2948L19.256 0.818321C19.3196 0.435262 19.0606 0.0731554 18.6775 0.00959341C18.2946 -0.0539686 17.9324 0.205014 17.8688 0.588073L16.8694 6.6094H8.91996L9.88108 0.818321C9.94464 0.435262 9.68566 0.0731554 9.3026 0.00959341C8.91963 -0.0539686 8.55748 0.205014 8.49387 0.588073L7.4945 6.6094H2.62498C2.23667 6.6094 1.92186 6.92421 1.92186 7.31252C1.92186 7.70083 2.23667 8.01564 2.62498 8.01564H7.26102L5.93841 15.9843H0.703119C0.31481 15.9843 0 16.2991 0 16.6874C0 17.0758 0.31481 17.3906 0.703119 17.3906H5.70502L4.74385 23.1816C4.68029 23.5647 4.93927 23.9268 5.32233 23.9904C5.36133 23.9968 5.40005 24 5.4383 24C5.77599 24 6.07397 23.756 6.13106 23.4119L7.13043 17.3906H15.0799L14.1187 23.1816C14.0552 23.5647 14.3142 23.9268 14.6972 23.9904C14.7362 23.9968 14.7749 24 14.8132 24C15.1509 24 15.4488 23.756 15.5059 23.4119L16.5053 17.3906H21.3747C21.763 17.3906 22.0779 17.0758 22.0779 16.6874C22.0779 16.2991 21.763 15.9843 21.3747 15.9843H16.7387L18.0613 8.01564H23.2966C23.6849 8.01564 23.9997 7.70083 23.9997 7.31252C23.9997 6.92421 23.685 6.6094 23.2967 6.6094ZM15.3133 15.9843H7.36386L8.68648 8.01564H16.6359L15.3133 15.9843Z" fill="black"/>
</svg>
