<svg width="24" height="24" viewBox="0 0 24 24" fill="none" xmlns="http://www.w3.org/2000/svg">
<g clip-path="url(#clip0_255_22228)">
<path d="M6.26087 23.7553H0V7.58154H6.26087V23.7553ZM1.04341 22.7119H5.21746V8.62496H1.04341V22.7119Z" fill="black"/>
<path d="M24.0001 23.7553H17.7392V14.8858C17.7392 14.0214 17.0384 13.3206 16.174 13.3206C15.3094 13.3206 14.6088 14.0214 14.6088 14.8858V23.7553H8.3479V7.58154H14.6088V8.63146C15.5538 7.9482 16.6904 7.58078 17.8565 7.58154C21.2413 7.58154 24.0001 10.3272 24.0001 13.7054V23.7553ZM18.7826 22.7119H22.9565V13.7054C22.9494 10.8948 20.6671 8.62133 17.8565 8.62496C16.5718 8.62496 15.3652 9.16625 14.4653 10.1445L13.5652 11.1293V8.62496H9.39131V22.7119H13.5652V14.8858C13.5652 13.445 14.7332 12.2772 16.174 12.2772C17.6146 12.2772 18.7826 13.445 18.7826 14.8858V22.7119Z" fill="black"/>
<path d="M3.13043 6.53821C1.40147 6.53821 0 5.13674 0 3.40778C0 1.67901 1.40147 0.277344 3.13043 0.277344C4.8594 0.277344 6.26087 1.67901 6.26087 3.40778C6.25724 5.13521 4.85787 6.53477 3.13043 6.53821ZM3.13043 1.32095C1.97792 1.32095 1.04341 2.25527 1.04341 3.40778C1.04341 4.56048 1.97792 5.4948 3.13043 5.4948C4.28295 5.4948 5.21746 4.56048 5.21746 3.40778C5.21746 2.25527 4.28295 1.32095 3.13043 1.32095Z" fill="black"/>
</g>
<defs>
<clipPath id="clip0_255_22228">
<rect width="24" height="24" fill="white"/>
</clipPath>
</defs>
</svg>
