<svg width="48" height="48" viewBox="0 0 48 48" fill="none" xmlns="http://www.w3.org/2000/svg">
<rect x="0.5" y="0.5" width="47" height="47" rx="23.5" stroke="#F2F2F2"/>
<g clip-path="url(#clip0_255_22246)">
<path d="M18.2609 35.7553H12V19.5815H18.2609V35.7553ZM13.0434 34.7119H17.2175V20.625H13.0434V34.7119Z" fill="white"/>
<path d="M36.0001 35.7553H29.7392V26.8858C29.7392 26.0214 29.0384 25.3206 28.174 25.3206C27.3094 25.3206 26.6088 26.0214 26.6088 26.8858V35.7553H20.3479V19.5815H26.6088V20.6315C27.5538 19.9482 28.6904 19.5808 29.8565 19.5815C33.2413 19.5815 36.0001 22.3272 36.0001 25.7054V35.7553ZM30.7826 34.7119H34.9565V25.7054C34.9494 22.8948 32.6671 20.6213 29.8565 20.625C28.5718 20.625 27.3652 21.1663 26.4653 22.1445L25.5652 23.1293V20.625H21.3913V34.7119H25.5652V26.8858C25.5652 25.445 26.7332 24.2772 28.174 24.2772C29.6146 24.2772 30.7826 25.445 30.7826 26.8858V34.7119Z" fill="white"/>
<path d="M15.1304 18.5382C13.4015 18.5382 12 17.1367 12 15.4078C12 13.679 13.4015 12.2773 15.1304 12.2773C16.8594 12.2773 18.2609 13.679 18.2609 15.4078C18.2572 17.1352 16.8579 18.5348 15.1304 18.5382ZM15.1304 13.3209C13.9779 13.3209 13.0434 14.2553 13.0434 15.4078C13.0434 16.5605 13.9779 17.4948 15.1304 17.4948C16.2829 17.4948 17.2175 16.5605 17.2175 15.4078C17.2175 14.2553 16.2829 13.3209 15.1304 13.3209Z" fill="white"/>
</g>
<defs>
<clipPath id="clip0_255_22246">
<rect width="24" height="24" fill="white" transform="translate(12 12)"/>
</clipPath>
</defs>
</svg>
