<svg width="199" height="109" viewBox="0 0 199 109" fill="none" xmlns="http://www.w3.org/2000/svg">
<g clip-path="url(#clip0_255_21880)">
<path d="M54.5249 51.7231C54.5249 51.7231 47.1254 76.92 46.7223 78.5458C46.3158 80.1716 45.5696 81.3277 43.8271 81.3277H35.4048L26.7893 51.7231L23.3245 81.3277H12.3901L18.3237 37.787H30.2109C31.6401 37.787 32.5763 38.9198 32.9661 40.3124C33.3559 41.705 40.6621 67.7914 40.6621 67.7914L49.0644 37.7837H60.8916C62.3208 37.7837 63.1238 38.6699 63.347 40.3224C63.5702 41.9715 68.9341 81.3244 68.9341 81.3244H57.9998L54.5316 51.7198L54.5249 51.7231Z" fill="#284181"/>
<path d="M91.6257 36.9208C79.0888 36.9208 71.8926 41.9215 71.8926 50.7902C71.8926 67.1917 96.6297 60.5252 96.6297 68.6576C96.6297 71.7926 93.0949 73.3252 86.1618 73.3252C81.4476 73.3252 77.7196 72.6622 73.3418 71.2063C73.705 73.8649 74.0248 76.2037 74.2613 77.9628C74.4679 79.4853 75.1009 80.5847 76.3836 80.9146C79.5719 81.7341 82.9202 82.1906 86.6949 82.1906C100.028 82.1906 107.764 76.9899 107.764 67.858C107.764 51.5232 83.0268 57.9898 83.0268 49.9873C83.0268 47.1888 86.0252 45.7862 92.2253 45.7862C96.8796 45.7862 100.478 46.5158 104.666 47.9117C104.666 47.9117 105.369 42.8477 105.515 41.6616C105.665 40.4789 105.718 39.5161 104.412 39.0597C100.434 37.6671 96.2866 36.9208 91.6223 36.9208" fill="#284181"/>
<path d="M134.44 73.1253C126.504 73.1253 122.373 68.6576 122.373 59.8556C122.373 51.0535 126.574 45.9861 134.773 45.9861C137.905 45.9861 141.503 46.6524 145.164 47.9151C145.164 47.9151 145.787 43.3508 145.974 41.9782C146.161 40.6056 145.864 39.3962 144.518 38.9264C140.717 37.6038 136.456 36.9175 132.238 36.9175C118.368 36.9175 111.369 44.7867 111.369 59.7889C111.369 74.7911 118.368 82.1939 132.105 82.1939C136.639 82.1939 141.06 81.4044 145.044 79.9484C146.031 79.5886 146.211 78.879 146.031 77.5397C145.847 76.2004 145.168 71.193 145.168 71.193C141.303 72.459 137.568 73.1253 134.44 73.1253Z" fill="#284181"/>
<path d="M158.541 26.866L163.312 46.4325C163.675 47.8784 165.304 48.5581 166.543 47.4253L190.408 23.8909C193.633 20.9658 190.927 15.6585 186.666 16.5481L162.625 20.3894C159.677 21.0057 157.828 23.9409 158.541 26.866Z" fill="#F79433"/>
<path d="M163.728 47.2821C163.568 47.0755 163.458 46.819 163.378 46.5325L152.737 9.88152C151.525 5.70369 156.605 2.59864 159.77 5.59042L180.796 25.4767C183.035 27.5923 183.071 31.1405 180.883 33.306L166.64 47.3953C166.64 47.3953 166.01 47.985 165.201 47.9917C164.275 48.0017 163.732 47.2821 163.732 47.2821" fill="#00BFDF"/>
<path d="M171.674 26.3829C171.654 26.7028 171.591 27.0193 171.517 27.3358L167.013 46.4791C166.807 47.352 166.134 47.8984 165.391 47.9817C165.274 47.995 165.154 47.995 165.031 47.985C164.648 47.9517 164.258 47.7918 163.921 47.4886L132.241 15.7851C129.306 13.1531 131.225 8.5322 134.787 8.33564C135.38 8.30232 135.966 8.43225 136.519 8.64214L167.679 20.436C170.771 21.5721 171.854 23.691 171.671 26.3863" fill="#284181"/>
<path d="M22.0018 94.5441L19.8996 102.197H17.5342L15.4319 94.5441L14.4391 102.197H12.3868L13.8228 92.0988H16.4647L18.7269 99.7514L20.9657 92.0988H23.611L25.0469 102.197H22.9913L22.0018 94.5441Z" fill="#00BFDF"/>
<path d="M26.906 94.834H28.8383V102.194H26.906V94.834ZM26.796 92.9483C26.796 92.3786 27.1991 92.0388 27.8655 92.0388C28.5318 92.0388 28.9482 92.3786 28.9482 92.9483C28.9482 93.518 28.5451 93.8745 27.8655 93.8745C27.1858 93.8745 26.796 93.518 26.796 92.9483Z" fill="#00BFDF"/>
<path d="M36.8141 101.84C36.0112 102.21 35.0683 102.397 34.1855 102.397C31.6668 102.397 30.4907 100.944 30.4907 98.6553C30.4907 96.3665 31.6335 94.634 34.2621 94.634C35.0817 94.634 35.9945 94.7873 36.7675 95.1738L36.4743 96.5664C35.8246 96.3198 35.3449 96.2232 34.8051 96.2232C33.1793 96.2232 32.483 97.0128 32.483 98.5287C32.483 100.125 33.1793 100.801 34.6619 100.801C35.2982 100.801 35.8679 100.678 36.5176 100.431L36.8108 101.84H36.8141Z" fill="#00BFDF"/>
<path d="M40.2956 96.2599C40.9153 94.9739 42.0414 94.5908 43.1075 94.5908V96.3699C41.7015 96.3699 40.8686 96.6931 40.3389 97.3727V102.197H38.4199V94.8374H40.0924L40.2923 96.2599H40.2956Z" fill="#00BFDF"/>
<path d="M49.4175 98.5154C49.4175 96.9396 48.8612 96.1966 47.6685 96.1966C46.4757 96.1966 45.8594 96.9396 45.8594 98.5154C45.8594 100.091 46.4324 100.838 47.6218 100.838C48.8112 100.838 49.4142 100.095 49.4142 98.5154M51.4265 98.5154C51.4265 101.067 50.1272 102.397 47.4985 102.397C45.1031 102.397 43.8638 101.067 43.8638 98.5154C43.8638 95.9634 45.1631 94.6375 47.7917 94.6375C50.1871 94.6375 51.4265 95.9634 51.4265 98.5154Z" fill="#00BFDF"/>
<path d="M60.0254 94.1243C59.0825 93.7812 58.2163 93.6013 57.1036 93.6013C55.5444 93.6013 54.7548 94.0011 54.7548 94.804C54.7548 96.9695 60.7084 95.437 60.7084 99.225C60.7084 101.251 59.0059 102.393 56.0374 102.393C54.7248 102.393 53.642 102.177 52.6226 101.73L52.9357 100.168C53.9219 100.541 54.8048 100.694 55.9175 100.694C57.6966 100.694 58.6094 100.231 58.6094 99.3616C58.6094 97.1661 52.6559 98.7286 52.6559 94.9406C52.6559 92.9783 54.2317 91.8955 57.0003 91.8955C58.2396 91.8955 59.3224 92.1287 60.3419 92.5652L60.032 94.1243H60.0254Z" fill="#00BFDF"/>
<path d="M66.7353 100.201V100.231C66.2122 100.724 65.6525 100.991 65.0794 100.991C64.3698 100.991 63.8901 100.634 63.8901 100.001C63.8901 99.1517 64.9262 98.6086 66.7353 98.532V100.204V100.201ZM65.5925 94.634C64.3732 94.634 63.2271 94.9905 62.3142 95.5436L62.5741 96.8596C63.5969 96.3965 64.4298 96.1799 65.266 96.1799H65.316C65.4326 96.1799 65.5392 96.1899 65.6392 96.2032C66.3888 96.3065 66.7386 96.7463 66.7386 97.5092V97.7091C63.6469 97.7724 61.9144 98.6519 61.9144 100.371C61.9144 101.65 62.8439 102.397 64.2799 102.397C65.3293 102.397 66.2255 102.007 66.8585 101.237V102.39H68.6676V97.7124C68.6676 95.6535 67.6614 94.6374 65.5925 94.6374" fill="#00BFDF"/>
<path d="M75.3042 102.197H72.5989L69.7837 94.8374H71.9326L73.9549 100.944L75.9705 94.8374H78.0994L75.3042 102.197Z" fill="#00BFDF"/>
<path d="M80.7447 97.8058H84.0863C84.0696 96.6631 83.5599 96.0734 82.6037 96.0734C81.7841 96.0734 80.9612 96.4765 80.748 97.8058M85.8021 98.8853H80.7014C80.7647 100.075 81.2744 100.801 82.8336 100.801C83.6065 100.801 84.4228 100.618 85.2457 100.201L85.5222 101.517C84.6127 102.087 83.3133 102.397 82.2139 102.397C79.8951 102.397 78.6891 101.004 78.6891 98.7753C78.6891 96.1334 80.1716 94.6342 82.5104 94.6342C84.5027 94.6342 85.8354 95.7169 85.8354 98.2689C85.8354 98.4988 85.8187 98.732 85.8021 98.8853Z" fill="#00BFDF"/>
<path d="M98.6221 94.1378C97.7425 93.7979 96.8597 93.6147 96.0867 93.6147C94.0145 93.6147 92.9484 94.8807 92.9484 97.2162C92.9484 99.5516 94.0145 100.681 96.0401 100.681C96.813 100.681 97.7092 100.494 98.6221 100.155L98.9319 101.717C97.9091 102.167 96.7497 102.397 95.5903 102.397C92.4686 102.397 90.8761 100.618 90.8761 97.2028C90.8761 93.7879 92.4686 91.8989 95.6236 91.8989C96.783 91.8989 97.9258 92.1321 98.9153 92.5786L98.6221 94.1411V94.1378Z" fill="#00BFDF"/>
<path d="M105.299 98.5154C105.299 96.9396 104.742 96.1966 103.553 96.1966C102.363 96.1966 101.744 96.9396 101.744 98.5154C101.744 100.091 102.314 100.838 103.506 100.838C104.699 100.838 105.299 100.095 105.299 98.5154ZM107.311 98.5154C107.311 101.067 106.012 102.397 103.383 102.397C100.988 102.397 99.7482 101.067 99.7482 98.5154C99.7482 95.9634 101.047 94.6375 103.676 94.6375C106.072 94.6375 107.311 95.9634 107.311 98.5154Z" fill="#00BFDF"/>
<path d="M115.77 97.3861V102.194H113.854V97.7126C113.854 96.6431 113.361 96.1334 112.475 96.1334C111.842 96.1334 111.285 96.4432 110.806 96.9829V102.194H108.887V94.8341H110.559L110.746 96.0701C111.379 95.1605 112.338 94.6342 113.374 94.6342C114.844 94.6342 115.77 95.6236 115.77 97.3861Z" fill="#00BFDF"/>
<path d="M123.193 94.9607L122.946 96.2733C122.39 96.1201 121.697 96.0434 121.09 96.0434C120.101 96.0434 119.388 96.2433 119.388 96.8463C119.388 98.239 123.579 97.2495 123.579 99.9547C123.579 101.471 122.28 102.397 120.131 102.397C119.081 102.397 118.092 102.164 117.396 101.827L117.672 100.494C118.275 100.758 119.081 100.988 119.914 100.988C120.95 100.988 121.567 100.618 121.567 100.045C121.567 98.5455 117.456 99.6449 117.456 96.9063C117.456 95.4071 118.708 94.6342 120.887 94.6342C121.753 94.6342 122.606 94.7574 123.193 94.9607Z" fill="#00BFDF"/>
<path d="M131.988 102.197H130.319L130.102 101.007C129.499 101.857 128.587 102.4 127.487 102.4C125.988 102.4 125.092 101.411 125.092 99.6482V94.8407H127.027V99.325C127.027 100.391 127.46 100.901 128.357 100.901C129.053 100.901 129.576 100.594 130.056 100.051V94.8407H131.988V102.2V102.197Z" fill="#00BFDF"/>
<path d="M136.073 91.3724H134.154V102.193H136.073V91.3724Z" fill="#00BFDF"/>
<path d="M139.011 92.7817H140.54V94.8373H142.069V96.3366H140.54V99.8781C140.54 100.528 140.817 100.821 141.436 100.821C141.713 100.821 141.993 100.758 142.256 100.621L142.536 101.997C142.073 102.273 141.483 102.4 140.85 102.4C139.287 102.4 138.625 101.69 138.625 100.128V92.7884H139.011" fill="#00BFDF"/>
<path d="M144.252 94.834H146.187V102.194H144.252V94.834ZM144.145 92.9483C144.145 92.3786 144.545 92.0388 145.211 92.0388C145.877 92.0388 146.294 92.3786 146.294 92.9483C146.294 93.518 145.891 93.8745 145.211 93.8745C144.531 93.8745 144.145 93.518 144.145 92.9483Z" fill="#00BFDF"/>
<path d="M155.306 97.3861V102.194H153.39V97.7126C153.39 96.6431 152.897 96.1334 152.014 96.1334C151.378 96.1334 150.825 96.4432 150.342 96.9829V102.194H148.423V94.8341H150.095L150.282 96.0701C150.915 95.1605 151.871 94.6342 152.907 94.6342C154.376 94.6342 155.302 95.6236 155.302 97.3861" fill="#00BFDF"/>
<path d="M162.825 95.7335L163.881 97.8458L165.034 95.4104L163.522 94.6941L162.825 95.7335Z" fill="#00BFDF"/>
<path d="M158.877 97.2628C158.877 98.1123 159.484 98.5321 160.72 98.5321C161.956 98.5321 162.575 98.1123 162.575 97.2628C162.575 96.4132 161.972 95.9968 160.72 95.9968C159.467 95.9968 158.877 96.3999 158.877 97.2628ZM163.052 103.216C163.052 101.917 160.796 102.044 159.051 101.807C158.677 102.21 158.478 102.687 158.478 103.14C158.478 103.879 159.017 104.559 160.843 104.559C162.406 104.559 163.052 103.943 163.052 103.216ZM163.532 95.3904C164.071 95.8402 164.335 96.4732 164.335 97.2461C164.335 98.8852 163.222 99.908 160.716 99.908C159.957 99.908 159.34 99.8148 158.831 99.6448C158.721 99.7848 158.661 99.9214 158.661 100.061C158.661 101.407 165.048 99.6282 165.048 103.106C165.048 104.559 163.841 105.858 160.563 105.858C157.841 105.858 156.605 105.009 156.605 103.463C156.605 102.583 157.022 101.904 157.625 101.424C157.268 101.224 157.052 100.931 157.052 100.494C157.052 99.8781 157.501 99.395 157.901 99.1351C157.362 98.672 157.098 98.0357 157.098 97.2494C157.098 95.6436 158.211 94.6375 160.716 94.6375C161.723 94.6375 162.509 94.8074 163.082 95.1005" fill="#00BFDF"/>
</g>
<defs>
<clipPath id="clip0_255_21880">
<rect width="198.324" height="109" fill="white"/>
</clipPath>
</defs>
</svg>
