<svg width="40" height="40" viewBox="0 0 40 40" fill="none" xmlns="http://www.w3.org/2000/svg">
<rect width="40" height="40" rx="20" fill="#EAB05C"/>
<g clip-path="url(#clip0_255_22103)">
<path d="M14.2717 23.4219V30.5469C14.2717 31.8359 15.828 32.4875 16.7467 31.5828L19.9999 28.3719L23.253 31.5781C24.1717 32.4828 25.728 31.8313 25.728 30.5422V23.4219C22.3999 26.1547 17.5999 26.1547 14.2717 23.4219Z" fill="white"/>
<path d="M19.9999 8C15.3452 8 11.5718 11.7734 11.5718 16.4281C11.5718 21.0828 15.3452 24.8516 19.9999 24.8516C24.6546 24.8516 28.4233 21.0781 28.4233 16.4281C28.4233 11.7734 24.6546 8 19.9999 8ZM19.9999 23.1734C16.278 23.1734 13.2499 20.1453 13.2499 16.4234C13.2499 12.7016 16.278 9.67344 19.9999 9.67344C23.7218 9.67344 26.7499 12.7016 26.7499 16.4234C26.7499 20.1453 23.7218 23.1734 19.9999 23.1734Z" fill="white"/>
<path d="M19.9999 10.2969C16.6202 10.2969 13.8733 13.0484 13.8733 16.4234C13.8733 19.7984 16.6202 22.5547 19.9999 22.5547C23.3842 22.55 26.1264 19.8078 26.1264 16.4281C26.1264 13.0484 23.3795 10.2969 19.9999 10.2969ZM23.5624 15.7812L22.1842 17.1266L22.5124 19.025C22.5639 19.325 22.3624 19.6109 22.0577 19.6625C21.9358 19.6813 21.8139 19.6625 21.7061 19.6063L19.9999 18.7109L18.2936 19.6063C18.0217 19.7469 17.6889 19.6438 17.5436 19.3719C17.4874 19.2641 17.4686 19.1422 17.4874 19.0203L17.8155 17.1219L16.4374 15.7812C16.217 15.5656 16.2124 15.2188 16.428 14.9984C16.5124 14.9094 16.6249 14.8531 16.7467 14.8391L18.6545 14.5625L19.5077 12.8375C19.6436 12.5609 19.9764 12.4531 20.2483 12.5844C20.3561 12.6359 20.4452 12.725 20.5014 12.8375L21.3545 14.5625L23.2624 14.8391C23.567 14.8812 23.7733 15.1625 23.7311 15.4672C23.7077 15.5844 23.6514 15.6969 23.5624 15.7812Z" fill="white"/>
</g>
<defs>
<clipPath id="clip0_255_22103">
<rect width="24" height="24" fill="white" transform="translate(8 8)"/>
</clipPath>
</defs>
</svg>
