<svg width="52" height="52" viewBox="0 0 52 52" fill="none" xmlns="http://www.w3.org/2000/svg">
<rect width="52" height="52" rx="26" fill="#EAB05C"/>
<g clip-path="url(#clip0_232_12146)">
<path d="M19.3171 29.9922V38.3047C19.3171 39.8086 21.1328 40.5688 22.2046 39.5133L26 35.7672L29.7953 39.5078C30.8671 40.5633 32.6828 39.8031 32.6828 38.2992V29.9922C28.8 33.1805 23.2 33.1805 19.3171 29.9922Z" fill="white"/>
<path d="M26 12C20.5696 12 16.1672 16.4023 16.1672 21.8328C16.1672 27.2633 20.5696 31.6602 26 31.6602C31.4305 31.6602 35.8274 27.2578 35.8274 21.8328C35.8274 16.4023 31.4305 12 26 12ZM26 29.7023C21.6579 29.7023 18.125 26.1695 18.125 21.8273C18.125 17.4852 21.6579 13.9523 26 13.9523C30.3422 13.9523 33.875 17.4852 33.875 21.8273C33.875 26.1695 30.3422 29.7023 26 29.7023Z" fill="white"/>
<path d="M26 14.6797C22.057 14.6797 18.8523 17.8898 18.8523 21.8273C18.8523 25.7648 22.057 28.9805 26 28.9805C29.9484 28.975 33.1476 25.7758 33.1476 21.8328C33.1476 17.8898 29.9429 14.6797 26 14.6797ZM30.1562 21.0781L28.5484 22.6477L28.9312 24.8625C28.9914 25.2125 28.7562 25.5461 28.4007 25.6062C28.2585 25.6281 28.1164 25.6063 27.9906 25.5406L26 24.4961L24.0093 25.5406C23.6921 25.7047 23.3039 25.5844 23.1343 25.2672C23.0687 25.1414 23.0468 24.9992 23.0687 24.857L23.4515 22.6422L21.8437 21.0781C21.5867 20.8266 21.5812 20.4219 21.8328 20.1648C21.9312 20.0609 22.0625 19.9953 22.2046 19.9789L24.4304 19.6562L25.4257 17.6437C25.5843 17.3211 25.9726 17.1953 26.2898 17.3484C26.4156 17.4086 26.5195 17.5125 26.5851 17.6437L27.5804 19.6562L29.8062 19.9789C30.1617 20.0281 30.4023 20.3563 30.3531 20.7117C30.3257 20.8484 30.2601 20.9797 30.1562 21.0781Z" fill="white"/>
</g>
<defs>
<clipPath id="clip0_232_12146">
<rect width="28" height="28" fill="white" transform="translate(12 12)"/>
</clipPath>
</defs>
</svg>
