<svg width="28" height="28" viewBox="0 0 28 28" fill="none" xmlns="http://www.w3.org/2000/svg">
<path d="M14.0002 28.0001C15.2098 28.0001 16.2542 27.282 16.7314 26.2501H11.269C11.7462 27.282 12.7906 28.0001 14.0002 28.0001Z" fill="white"/>
<path d="M13.1797 20.7812V14.1472C11.3098 13.8169 9.89843 12.3807 9.89843 10.664C9.89843 10.211 10.2657 9.84373 10.7187 9.84373C11.1718 9.84373 11.539 10.211 11.539 10.664C11.539 11.4958 12.2249 12.205 13.1797 12.4683V0.560655C12.6166 0.200046 11.9558 0 11.2656 0C9.5405 0 8.06897 1.24561 7.76923 2.92676C5.79375 3.50448 4.42969 5.31129 4.42969 7.3828C4.42969 8.49044 4.8218 9.54896 5.53897 10.3906C4.82185 11.2322 4.42969 12.2908 4.42969 13.3984C4.42969 15.47 5.79375 17.2767 7.76923 17.8544C8.06891 19.5355 9.5405 20.7812 11.2656 20.7812H13.1797Z" fill="white"/>
<path d="M9.89844 23.2423C9.89844 23.9973 10.5106 24.6094 11.2656 24.6094H16.7344C17.4895 24.6094 18.1016 23.9973 18.1016 23.2423V22.4219H9.89844V23.2423Z" fill="white"/>
<path d="M20.2308 2.92676C19.9311 1.24567 18.4595 0 16.7344 0C16.0442 0 15.3834 0.200046 14.8203 0.560655V6.63407C16.6902 6.96433 18.1016 8.40058 18.1016 10.1172C18.1016 10.5703 17.7343 10.9375 17.2812 10.9375C16.8282 10.9375 16.4609 10.5703 16.4609 10.1172C16.4609 9.28548 15.7751 8.57629 14.8203 8.31292V20.7813H16.7344C18.4595 20.7813 19.9311 19.5356 20.2308 17.8545C22.2062 17.2768 23.5703 15.47 23.5703 13.3985C23.5703 12.2908 23.1782 11.2323 22.4611 10.3907C23.1782 9.54902 23.5703 8.49049 23.5703 7.38285C23.5703 5.31129 22.2062 3.50453 20.2308 2.92676Z" fill="white"/>
<path d="M25.5399 4.6487C25.2748 4.6487 25.0147 4.52041 24.8566 4.28328C24.6053 3.90632 24.7072 3.39701 25.0841 3.14572L26.7248 2.05197C27.1017 1.80057 27.611 1.90251 27.8623 2.27947C28.1136 2.65643 28.0117 3.16574 27.6348 3.41703L25.9942 4.51078C25.8544 4.60402 25.6963 4.6487 25.5399 4.6487Z" fill="white"/>
<path d="M27.1791 18.3206C27.0227 18.3206 26.8646 18.2759 26.7248 18.1827L25.0841 17.0889C24.7072 16.8376 24.6053 16.3283 24.8566 15.9514C25.1079 15.5744 25.6173 15.4726 25.9942 15.7239L27.6348 16.8176C28.0117 17.0689 28.1136 17.5782 27.8623 17.9552C27.7043 18.1923 27.4441 18.3206 27.1791 18.3206Z" fill="white"/>
<path d="M2.46032 4.64864C2.30397 4.64864 2.14586 4.60401 2.00603 4.51077L0.365396 3.41702C-0.0115665 3.16573 -0.11345 2.65642 0.13784 2.27946C0.389185 1.90244 0.898546 1.80061 1.2754 2.05196L2.91603 3.14571C3.29299 3.397 3.39488 3.90631 3.14359 4.28327C2.98554 4.52034 2.72539 4.64864 2.46032 4.64864Z" fill="white"/>
<path d="M0.821163 18.3206C0.556092 18.3206 0.295942 18.1923 0.13784 17.9552C-0.11345 17.5783 -0.0115665 17.0689 0.365396 16.8177L2.00603 15.7239C2.38294 15.4725 2.8923 15.5744 3.14359 15.9514C3.39488 16.3284 3.29299 16.8377 2.91603 17.089L1.2754 18.1827C1.13562 18.276 0.977515 18.3206 0.821163 18.3206Z" fill="white"/>
<path d="M2.46095 10.9376H0.820316C0.367283 10.9376 0 10.5703 0 10.1173C0 9.66422 0.367283 9.29694 0.820316 9.29694H2.46095C2.91398 9.29694 3.28126 9.66422 3.28126 10.1173C3.28126 10.5703 2.91398 10.9376 2.46095 10.9376Z" fill="white"/>
<path d="M27.1797 10.9376H25.5391C25.086 10.9376 24.7188 10.5703 24.7188 10.1173C24.7188 9.66422 25.086 9.29694 25.5391 9.29694H27.1797C27.6327 9.29694 28 9.66422 28 10.1173C28 10.5703 27.6327 10.9376 27.1797 10.9376Z" fill="white"/>
</svg>
