<svg width="52" height="52" viewBox="0 0 52 52" fill="none" xmlns="http://www.w3.org/2000/svg">
<rect width="52" height="52" rx="26" fill="#EAB05C"/>
<g clip-path="url(#clip0_232_12161)">
<path d="M29.3967 14.305L27.5534 14.0431L26.7322 12.4193C26.4534 11.8666 25.5466 11.8666 25.2678 12.4193L24.4467 14.0431L22.6034 14.3051C21.9272 14.4007 21.6571 15.2384 22.1532 15.7118L23.4758 16.9695L23.1642 18.7414C23.0475 19.4082 23.7476 19.921 24.3474 19.613L26 18.7639L27.6527 19.613C28.2608 19.9267 28.9513 19.4013 28.8359 18.7414L28.5243 16.9695L29.8469 15.7118C30.3429 15.2384 30.0728 14.4007 29.3967 14.305Z" fill="white"/>
<path d="M39.2951 19.3078L37.4518 19.0459L36.6307 17.4221C36.3519 16.8694 35.445 16.8694 35.1663 17.4221L34.3452 19.0459L32.5019 19.3078C31.8257 19.4034 31.5556 20.2412 32.0517 20.7146L33.3743 21.9723L33.0627 23.7442C32.946 24.4111 33.6461 24.9238 34.2459 24.6159L35.8984 23.7667L37.5511 24.6158C38.1622 24.9284 38.8492 24.4007 38.7343 23.7442L38.4227 21.9722L39.7453 20.7145C40.2414 20.2412 39.9712 19.4034 39.2951 19.3078Z" fill="white"/>
<path d="M19.4983 19.3078L17.655 19.0459L16.8338 17.4221C16.555 16.8694 15.6482 16.8694 15.3694 17.4221L14.5483 19.0459L12.705 19.3078C12.0288 19.4034 11.7587 20.2412 12.2548 20.7146L13.5774 21.9723L13.2658 23.7442C13.1492 24.4111 13.8493 24.9238 14.449 24.6159L16.1016 23.7667L17.7542 24.6158C18.3636 24.9284 19.0525 24.402 18.9374 23.7442L18.6258 21.9723L19.9484 20.7146C20.4445 20.2412 20.1744 19.4035 19.4983 19.3078Z" fill="white"/>
<path d="M28.9573 29.9591C30.143 29.0596 30.9219 27.6497 30.9219 26.0499C30.9219 23.3358 28.7141 21.1281 26 21.1281C23.2859 21.1281 21.0781 23.3358 21.0781 26.0499C21.0781 27.6497 21.857 29.0596 23.0427 29.9591C20.442 31.1025 18.6172 33.6956 18.6172 36.714V39.1749C18.6172 39.6283 18.9841 39.9952 19.4375 39.9952H32.5625C33.0159 39.9952 33.3828 39.6283 33.3828 39.1749V36.714C33.3828 33.6956 31.558 31.1025 28.9573 29.9591Z" fill="white"/>
</g>
<defs>
<clipPath id="clip0_232_12161">
<rect width="28" height="28" fill="white" transform="translate(12 12)"/>
</clipPath>
</defs>
</svg>
