<svg width="24" height="15" viewBox="0 0 24 15" fill="none" xmlns="http://www.w3.org/2000/svg">
<path d="M23.3039 8.00549C23.2661 7.4599 23.1896 6.86475 23.0771 6.23627C22.9634 5.6031 22.8171 5.00453 22.6419 4.45744C22.461 3.89198 22.2149 3.33357 21.9107 2.79845C21.5949 2.24303 21.2241 1.75939 20.808 1.36141C20.3728 0.945065 19.84 0.610319 19.2239 0.366148C18.61 0.12326 17.9296 0.000213622 17.2018 0.000213622C16.916 0.000213622 16.6395 0.117492 16.1057 0.465056C15.7771 0.679319 15.3928 0.92712 14.9639 1.2012C14.5971 1.4349 14.1002 1.65386 13.4865 1.8521C12.8877 2.04586 12.2797 2.14413 11.6796 2.14413C11.0796 2.14413 10.4718 2.04586 9.87238 1.8521C9.25928 1.65408 8.76239 1.43511 8.39603 1.20141C7.97113 0.929897 7.58661 0.682096 7.25314 0.464842C6.71994 0.117279 6.4433 0 6.15747 0C5.42944 0 4.74927 0.12326 4.13553 0.366362C3.51987 0.610105 2.98688 0.944851 2.5513 1.36163C2.13538 1.75982 1.76431 2.24325 1.44901 2.79845C1.14502 3.33357 0.898926 3.89177 0.717773 4.45765C0.542816 5.00474 0.396484 5.6031 0.282837 6.23627C0.170258 6.86389 0.0937805 7.45926 0.0559693 8.00613C0.0187988 8.5419 0 9.09796 0 9.65957C0 11.1212 0.46463 12.3044 1.38086 13.1771C2.28577 14.0382 3.48312 14.475 4.93918 14.475H18.4214C19.8774 14.475 21.0743 14.0384 21.9795 13.1771C22.8959 12.3051 23.3605 11.1216 23.3605 9.65936C23.3603 9.09518 23.3413 8.53869 23.3039 8.00549Z" fill="white"/>
</svg>
