<svg width="25" height="32" viewBox="0 0 25 32" fill="none" xmlns="http://www.w3.org/2000/svg">
<path fill-rule="evenodd" clip-rule="evenodd" d="M7.31774 5.31665C7.31774 2.3805 9.63739 0 12.5003 0C15.3614 0 17.6811 2.3805 17.6811 5.31665C17.6811 8.25471 15.3614 10.6352 12.5003 10.6352C9.63739 10.6352 7.31774 8.25471 7.31774 5.31665ZM5.81815 14.8588C7.6843 13.435 9.99652 12.5925 12.5003 12.5925C15.0039 12.5925 17.3159 13.4349 19.1817 14.8588C18.5749 15.1376 17.9636 15.436 17.3519 15.7132C15.92 16.362 14.48 16.9312 13.0828 16.1182C12.7213 15.9079 12.2787 15.9079 11.9172 16.1182C10.52 16.9312 9.07999 16.362 7.64792 15.7132C7.03626 15.4361 6.42493 15.1376 5.81815 14.8588ZM1.97098 19.635V15.4075C1.97098 15.2866 2.02019 15.1712 2.1067 15.0893C2.19321 15.0072 2.30918 14.9661 2.42659 14.9757C5.431 15.3067 8.75917 18.6717 11.9092 17.4576V31.7367C8.7374 32.9588 5.38508 29.5462 2.36421 29.2589C2.14417 29.2434 1.97334 29.0557 1.97334 28.8293C1.97098 28.0657 1.97098 26.504 1.97098 26.504H2.93731C3.51716 26.504 4.0732 26.2676 4.48323 25.8469C4.89326 25.4261 5.1236 24.8554 5.1236 24.2603V21.8787C5.1236 21.2837 4.89326 20.713 4.48323 20.2922C4.0732 19.8714 3.51716 19.635 2.93731 19.635H1.97098ZM23.0278 26.504V28.8293C23.0278 29.0569 22.856 29.2457 22.6347 29.2613C19.6148 29.5463 16.2625 32.9588 13.0908 31.7367V17.4576C16.2408 18.6716 19.5688 15.3068 22.5724 14.9786C22.689 14.9689 22.8043 15.0098 22.8903 15.0913C22.9762 15.1728 23.0251 15.2873 23.0251 15.4075C23.0278 16.5834 23.0278 19.635 23.0278 19.635H22.0628C21.4829 19.635 20.9268 19.8714 20.5168 20.2922C20.1067 20.713 19.8764 21.2837 19.8764 21.8787V24.2603C19.8764 24.8554 20.1067 25.4261 20.5168 25.8469C20.9268 26.2676 21.4829 26.504 22.0628 26.504H23.0278ZM2.93731 20.8477C3.20377 20.8477 3.45926 20.9563 3.64773 21.1497C3.83612 21.343 3.94196 21.6053 3.94196 21.8787V24.2603C3.94196 24.5337 3.83612 24.796 3.64773 24.9893C3.45926 25.1828 3.20377 25.2914 2.93731 25.2914H1.00473C0.738273 25.2914 0.482701 25.1828 0.294313 24.9893C0.105841 24.796 0 24.5337 0 24.2603V21.8787C0 21.6053 0.105841 21.343 0.294313 21.1497C0.482701 20.9563 0.738273 20.8477 1.00473 20.8477H2.93731ZM23.9954 20.8477C24.2618 20.8477 24.5173 20.9563 24.7058 21.1497C24.8942 21.343 25 21.6053 25 21.8787V24.2603C25 24.5337 24.8942 24.796 24.7058 24.9893C24.5173 25.1828 24.2618 25.2914 23.9954 25.2914H22.0628C21.7963 25.2914 21.5407 25.1828 21.3523 24.9893C21.1639 24.796 21.058 24.5337 21.058 24.2603V21.8787C21.058 21.6053 21.1639 21.343 21.3523 21.1497C21.5407 20.9563 21.7963 20.8477 22.0628 20.8477H23.9954Z" fill="white"/>
</svg>
