<svg width="5" height="6" viewBox="0 0 5 6" fill="none" xmlns="http://www.w3.org/2000/svg">
<path d="M4.98 4.35C4.72828 4.707 4.39411 4.99796 4.00587 5.19817C3.61764 5.39838 3.18681 5.50192 2.75 5.5C2.31426 5.5 1.88475 5.39645 1.49688 5.19789C1.10901 4.99933 0.773868 4.71145 0.519084 4.35795C0.264301 4.00446 0.0971659 3.59548 0.0314522 3.16472C-0.0342616 2.73396 0.0033274 2.29376 0.141121 1.88037C0.278915 1.46699 0.51297 1.09227 0.823996 0.787092C1.13502 0.481913 1.51412 0.255012 1.93004 0.125088C2.34596 -0.00483637 2.7868 -0.0340646 3.21624 0.0398119C3.64567 0.113688 4.05141 0.288555 4.4 0.55C4.29974 0.942101 4.24934 1.34528 4.25 1.75C4.25076 2.66715 4.50327 3.56649 4.98 4.35Z" fill="#EAB05C"/>
</svg>
