<svg width="12" height="10" viewBox="0 0 12 10" fill="none" xmlns="http://www.w3.org/2000/svg">
<path d="M10.9814 4.078C10.8152 2.94851 10.2496 1.91601 9.38727 1.16782C8.52496 0.419622 7.42303 0.0052949 6.28138 0H5.21738C4.07574 0.0052949 2.9738 0.419622 2.11149 1.16782C1.24918 1.91601 0.683606 2.94851 0.517381 4.078L0.00738079 7.644C-0.00891108 7.75927 0.00185414 7.87675 0.0388239 7.98714C0.0757937 8.09753 0.137953 8.19779 0.220381 8.28C0.420381 8.48 1.64738 9.5 5.75038 9.5C9.85338 9.5 11.0774 8.484 11.2804 8.28C11.3628 8.19779 11.425 8.09753 11.4619 7.98714C11.4989 7.87675 11.5097 7.75927 11.4934 7.644L10.9814 4.078Z" fill="#EAB05C"/>
</svg>
