<svg width="28" height="28" viewBox="0 0 28 28" fill="none" xmlns="http://www.w3.org/2000/svg">
<path d="M10.9051 8.58389C9.08744 5.95046 9.64624 1.42212 14.0001 1.42212C18.3539 1.42212 18.9128 5.95046 17.0951 8.58389C16.2607 9.7927 15.1283 10.385 14.0001 10.3838C12.8719 10.385 11.7394 9.7927 10.9051 8.58389ZM23.8263 15.8262C23.701 14.1956 23.3362 13.5828 22.3125 12.9827C21.5278 12.5225 20.156 12.1592 18.9035 11.8388L16.2318 11.1817C16.0535 11.2777 15.8696 11.3629 15.6805 11.4362L16.9352 20.4548C16.9592 20.6277 16.9158 20.8038 16.8148 20.9459L14.5567 24.1091C14.4282 24.289 14.2208 24.3956 14 24.3956C13.7791 24.3956 13.5718 24.289 13.4438 24.1091L11.1857 20.9459C11.084 20.8038 11.0407 20.6276 11.065 20.4548L12.3202 11.4364C12.1309 11.363 11.9468 11.2778 11.7683 11.1817L9.09658 11.8388C7.84418 12.1592 6.47229 12.5225 5.68758 12.9827C4.66394 13.5828 4.29917 14.1956 4.17377 15.8262C4.01512 18.7069 4.06773 21.3844 4.18389 24.1363C4.24153 25.5013 5.36437 26.5778 6.73063 26.5778H7.06007V18.7204C7.06007 18.3429 7.3661 18.0368 7.74366 18.0368C8.12123 18.0368 8.42726 18.3429 8.42726 18.7204V26.5778H19.573V18.7204C19.573 18.3429 19.879 18.0368 20.2565 18.0368C20.6341 18.0368 20.9401 18.3429 20.9401 18.7204V26.5778H21.2696C22.6358 26.5778 23.7587 25.5014 23.8163 24.1363C23.9325 21.3845 23.9851 18.7069 23.8264 15.8262H23.8263ZM13.6586 11.7384L12.4569 20.3734L14 22.5358L15.544 20.3734L14.3416 11.7384C14.2289 11.7466 14.1151 11.7509 14.0001 11.7509C13.8851 11.7509 13.7712 11.7466 13.6586 11.7384Z" fill="white"/>
</svg>
