<svg width="5" height="6" viewBox="0 0 5 6" fill="none" xmlns="http://www.w3.org/2000/svg">
<path d="M4.98 2.75C4.98026 3.11121 4.90931 3.46893 4.7712 3.80269C4.6331 4.13646 4.43054 4.43972 4.17513 4.69513C3.91972 4.95055 3.61645 5.1531 3.28269 5.29121C2.94893 5.42931 2.59121 5.50026 2.23 5.5C1.79319 5.50192 1.36236 5.39838 0.974127 5.19817C0.585893 4.99796 0.251721 4.707 0 4.35C0.476729 3.56649 0.729236 2.66715 0.73 1.75C0.730662 1.34529 0.680264 0.942102 0.58 0.550002C0.988566 0.243577 1.47439 0.0569776 1.98303 0.0111132C2.49168 -0.0347512 3.00305 0.0619311 3.45984 0.290327C3.91663 0.518722 4.3008 0.869807 4.56929 1.30424C4.83779 1.73867 4.98 2.23929 4.98 2.75Z" fill="#EAB05C"/>
</svg>
