<svg width="28" height="28" viewBox="0 0 28 28" fill="none" xmlns="http://www.w3.org/2000/svg">
<path d="M23.1875 19.25C22.2945 19.2494 21.4279 19.5537 20.7314 20.1127L18.0071 17.3884C18.754 16.5054 19.1868 15.3995 19.2378 14.2441L24.5945 14.0437C24.7073 14.3336 24.919 14.5742 25.1921 14.723C25.4651 14.8718 25.782 14.9192 26.0867 14.8569C26.3914 14.7946 26.6642 14.6265 26.8569 14.3824C27.0496 14.1383 27.1498 13.8339 27.1397 13.5231C27.1296 13.2122 27.0098 12.915 26.8017 12.6839C26.5936 12.4529 26.3104 12.3029 26.0023 12.2604C25.6942 12.218 25.3811 12.2859 25.1182 12.4522C24.8554 12.6184 24.6598 12.8722 24.5661 13.1687L19.2085 13.3669C19.1178 12.6137 18.8649 11.8892 18.4671 11.2432C18.0692 10.5973 17.536 10.0453 16.9042 9.62544L18.1677 7.32769C18.6875 7.48968 19.2489 7.45284 19.743 7.22431C20.2372 6.99579 20.6288 6.59187 20.842 6.09091C21.0552 5.58996 21.0747 5.02767 20.8968 4.51313C20.7189 3.9986 20.3562 3.56849 19.8791 3.30624C19.4019 3.04399 18.8444 2.9683 18.3147 3.09385C17.7849 3.2194 17.3207 3.53724 17.012 3.98572C16.7033 4.43419 16.5722 4.98133 16.6441 5.52099C16.716 6.06065 16.9858 6.55437 17.4012 6.90637L16.1368 9.20544C15.2354 8.80168 14.2382 8.66137 13.2604 8.80073C12.2826 8.94009 11.3643 9.35343 10.6116 9.99294L7.8873 7.26819C8.51644 6.48093 8.82024 5.48265 8.73631 4.47839C8.65237 3.47413 8.18708 2.54013 7.436 1.86823C6.68491 1.19633 5.70506 0.837532 4.69768 0.865538C3.69031 0.893544 2.7319 1.30623 2.01931 2.01882C1.30671 2.73141 0.894032 3.68982 0.866026 4.6972C0.83802 5.70457 1.19682 6.68442 1.86872 7.43551C2.54062 8.18659 3.47462 8.65189 4.47888 8.73582C5.48314 8.81975 6.48142 8.51595 7.26867 7.88681L9.99299 10.6116C9.18942 11.5576 8.74881 12.7588 8.75005 14C8.75132 14.3142 8.7806 14.6277 8.83755 14.9367L4.14011 16.2015C3.92822 15.8365 3.59078 15.5611 3.19075 15.4266C2.79073 15.2922 2.35544 15.3078 1.96611 15.4707C1.57678 15.6336 1.26 15.9325 1.07488 16.3118C0.88975 16.691 0.848926 17.1247 0.96002 17.5318C1.07111 17.9389 1.32654 18.2917 1.67863 18.5244C2.03073 18.7571 2.45545 18.8537 2.87354 18.7962C3.29163 18.7388 3.67454 18.5312 3.95083 18.2122C4.22711 17.8931 4.3779 17.4845 4.37505 17.0625C4.37505 17.0564 4.37505 17.0511 4.37505 17.045L9.06855 15.7815C9.47546 16.9051 10.253 17.8566 11.2731 18.4791L9.95536 21.1142C9.32285 20.9183 8.63984 20.9673 8.04175 21.2514C7.44367 21.5356 6.97419 22.0341 6.72642 22.6481C6.47865 23.2621 6.47067 23.9469 6.70408 24.5665C6.93748 25.1861 7.39522 25.6954 7.98653 25.9934C8.57783 26.2914 9.25953 26.3563 9.89643 26.1752C10.5333 25.9941 11.0789 25.5803 11.425 25.0158C11.7711 24.4513 11.8925 23.7774 11.765 23.1276C11.6375 22.4779 11.2705 21.8998 10.7367 21.5079L12.0545 18.8729C12.9387 19.2283 13.9031 19.3355 14.8438 19.1829C15.7844 19.0304 16.6655 18.6238 17.392 18.0071L20.1163 20.7314C19.5597 21.4288 19.2565 22.2947 19.2564 23.187C19.2563 24.0794 19.5593 24.9453 20.1157 25.6429C20.6722 26.3405 21.4491 26.8284 22.3191 27.0266C23.1892 27.2248 24.1007 27.1217 24.9045 26.734C25.7082 26.3463 26.3564 25.6972 26.7429 24.8928C27.1294 24.0885 27.2312 23.1768 27.0317 22.3071C26.8321 21.4373 26.3431 20.6611 25.6447 20.1057C24.9463 19.5503 24.0799 19.2486 23.1875 19.25ZM7.00005 7H2.62505C2.62505 6.41984 2.85552 5.86344 3.26575 5.4532C3.67599 5.04297 4.23239 4.8125 4.81255 4.8125C4.55296 4.8125 4.2992 4.73552 4.08336 4.5913C3.86752 4.44708 3.6993 4.2421 3.59996 4.00227C3.50062 3.76244 3.47463 3.49854 3.52527 3.24394C3.57591 2.98934 3.70092 2.75548 3.88447 2.57192C4.06803 2.38836 4.30189 2.26336 4.55649 2.21272C4.81109 2.16208 5.07499 2.18807 5.31482 2.28741C5.55465 2.38675 5.75963 2.55497 5.90385 2.77081C6.04807 2.98665 6.12505 3.24041 6.12505 3.5C6.12505 3.8481 5.98677 4.18194 5.74063 4.42808C5.49449 4.67422 5.16065 4.8125 4.81255 4.8125C5.39271 4.8125 5.94911 5.04297 6.35935 5.4532C6.76958 5.86344 7.00005 6.41984 7.00005 7ZM14 10.5C14.3462 10.5 14.6845 10.6026 14.9723 10.7949C15.2601 10.9872 15.4844 11.2605 15.6168 11.5803C15.7493 11.9001 15.7839 12.2519 15.7164 12.5914C15.6489 12.9309 15.4822 13.2427 15.2375 13.4874C14.9927 13.7322 14.6809 13.8988 14.3415 13.9664C14.002 14.0339 13.6501 13.9992 13.3304 13.8668C13.0106 13.7343 12.7373 13.51 12.545 13.2222C12.3527 12.9345 12.25 12.5961 12.25 12.25C12.25 11.7859 12.4344 11.3408 12.7626 11.0126C13.0908 10.6844 13.5359 10.5 14 10.5ZM11.375 17.0625C11.375 16.3663 11.6516 15.6986 12.1439 15.2063C12.6362 14.7141 13.3039 14.4375 14 14.4375C14.6962 14.4375 15.3639 14.7141 15.8562 15.2063C16.3485 15.6986 16.625 16.3663 16.625 17.0625H11.375ZM21 25.375C21 24.7948 21.2305 24.2384 21.6408 23.8282C22.051 23.418 22.6074 23.1875 23.1875 23.1875C22.928 23.1875 22.6742 23.1105 22.4584 22.9663C22.2425 22.8221 22.0743 22.6171 21.975 22.3773C21.8756 22.1374 21.8496 21.8735 21.9003 21.6189C21.9509 21.3643 22.0759 21.1305 22.2595 20.9469C22.443 20.7634 22.6769 20.6384 22.9315 20.5877C23.1861 20.5371 23.45 20.5631 23.6898 20.6624C23.9296 20.7617 24.1346 20.93 24.2789 21.1458C24.4231 21.3617 24.5 21.6154 24.5 21.875C24.5 22.2231 24.3618 22.5569 24.1156 22.8031C23.8695 23.0492 23.5356 23.1875 23.1875 23.1875C23.7677 23.1875 24.3241 23.418 24.7343 23.8282C25.1446 24.2384 25.375 24.7948 25.375 25.375H21Z" fill="white"/>
</svg>
