<svg width="16" height="17" viewBox="0 0 16 17" fill="none" xmlns="http://www.w3.org/2000/svg">
<path d="M15.6522 16.1738H9.3913V7.30429C9.3913 6.4399 8.69047 5.73907 7.82609 5.73907C6.96151 5.73907 6.26087 6.4399 6.26087 7.30429V16.1738H0V1.18989e-06H6.26087V1.04991C7.20589 0.366658 8.34254 -0.000763076 9.50862 1.18989e-06C12.8934 1.18989e-06 15.6522 2.74563 15.6522 6.12388V16.1738ZM10.4347 15.1304H14.6086V6.12388C14.6015 3.31329 12.3192 1.03979 9.50862 1.04342C8.22389 1.04342 7.0173 1.58471 6.11738 2.56297L5.21726 3.54773V1.04342H1.04341V15.1304H5.21726V7.30429C5.21726 5.86345 6.38525 4.69565 7.82609 4.69565C9.26673 4.69565 10.4347 5.86345 10.4347 7.30429V15.1304Z" fill="black"/>
</svg>
