<svg width="24" height="24" viewBox="0 0 24 24" fill="none" xmlns="http://www.w3.org/2000/svg">
<g clip-path="url(#clip0_341_62)">
<path d="M17.24 19.16L19.04 20.95L20.45 19.54L18.66 17.75L17.24 19.16ZM23 13.5H20V11.5H23V13.5ZM13 23.45H11V20.5H13V23.45ZM4.96 20.955L3.552 19.548L5.342 17.758L6.749 19.166L4.96 20.955ZM6.76 5.84L4.97 4.04L3.56 5.45L5.36 7.24L6.76 5.84ZM4 13.5H1V11.5H4V13.5ZM12 18.5C15.31 18.5 18 15.81 18 12.5C18 9.19 15.31 6.5 12 6.5C8.69 6.5 6 9.19 6 12.5C6 15.81 8.69 18.5 12 18.5ZM12 8.5C14.21 8.5 16 10.29 16 12.5C16 14.71 14.21 16.5 12 16.5C9.79 16.5 8 14.71 8 12.5C8 10.29 9.79 8.5 12 8.5ZM13 4.5H11V1.55H13V4.5ZM20.45 5.46L19.04 4.05L17.25 5.85L18.66 7.26L20.45 5.46Z" fill="white"/>
</g>
<defs>
<clipPath id="clip0_341_62">
<rect width="24" height="24" fill="white" transform="matrix(-1 0 0 -1 24 24)"/>
</clipPath>
</defs>
</svg>
